<svg aria-hidden="true" style="width:0;height:0;position:absolute;overflow:hidden" xmlns="http://www.w3.org/2000/svg"><defs><symbol id="icon-logo" viewBox="0 0 61 32"><path d="M36.151 16.031c0 .256-.007.512 0 .768.076 2.603-.629 4.949-1.762 7.16a33.89 33.89 0 0 0-1.07 2.271c-.27.637-.645 1.083-1.228 1.344-.326.145-.628.397-.901.657-1.257 1.196-2.683 2.052-4.208 2.655-1.013.4-2.056.753-3.156.737-.328-.004-.657.112-.986.113s-.657-.122-.983-.105c-1.419.07-2.734-.433-4.039-.961-1.424-.576-2.682-1.485-3.865-2.569-1.67-1.529-2.859-3.454-3.734-5.658-.471-1.188-.855-2.414-.964-3.733-.018-.219-.081-.435-.137-.648-.397-1.479-.169-2.929.077-4.403.188-1.127.381-2.24.747-3.31.967-2.83 2.502-5.148 4.628-6.968C16.343 1.865 18.327.933 20.484.533c2.475-.459 4.892-.129 7.236.945 1.17.537 2.274 1.218 3.238 2.119.899.84 1.71 1.824 2.477 2.829.694.911 1.187 1.996 1.628 3.103.688 1.729 1.136 3.519 1.09 5.443-.01.355-.003.708-.003 1.06zm-.95-3.504c-.068-.604-.111-1.305-.239-1.984-.365-1.955-1.348-3.482-2.658-4.728-.744-.709-1.554-1.324-2.354-1.951-.271-.212-.585-.407-.901-.472-.812-.172-1.634-.333-2.457-.382-1.429-.084-2.713-.509-3.792-1.653-.794-.842-1.659-.924-2.485-.182-.936.839-2 1.332-3.086 1.82-.795.357-1.561.808-2.326 1.253-.639.372-1.011.953-1.002 1.833.005.493-.191.905-.588 1.179a9.011 9.011 0 0 0-.951.759c-.846.767-1.505 1.631-1.647 2.971-.113 1.06-.391 2.108-1.022 2.981a2.17 2.17 0 0 0-.376 1.049c-.058.792-.034 1.594-.017 2.392.005.213.085.442.18.63.218.444.455.874.711 1.29.619.992 1.158 2.008 1.282 3.268.12 1.22.632 2.215 1.498 2.974 1.254 1.1 2.463 2.268 3.736 3.339.684.577 1.417 1.082 2.319 1.199s1.787.4 2.596.924c.17.105.356.171.547.193 1.142.142 2.198-.184 3.2-.799.314-.193.638-.368.963-.536.783-.404 1.652-.669 2.334-1.232.759-.627 1.571-.905 2.442-1.081.376-.076.684-.255.929-.577.292-.383.563-.787.868-1.157.315-.381.543-.787.598-1.331.084-.833.394-1.569.787-2.276.665-1.194 1.043-2.514 1.24-3.918.052-.368.081-.679-.077-1.003-.458-.935-.271-1.997-.416-2.992-.073-.538.095-1.127.166-1.797l-.002.001zm-5.509-9.34c-.193-.246-.255-.357-.342-.426-.158-.126-.33-.229-.498-.338-1.437-.932-3.01-1.385-4.618-1.711-.323-.066-.663-.036-.992-.022-.086.004-.188.1-.243.186-.025.039.031.177.079.243a3.12 3.12 0 0 0 1.35 1.072 7.983 7.983 0 0 0 2.826.611c.408.013.816.102 1.223.166.347.057.693.125 1.216.219zM17.486 30.053c-.964-.908-1.81-1.719-2.67-2.509a97.596 97.596 0 0 0-2.168-1.915c-.082-.071-.211-.069-.39-.122.877 1.696 3.806 4.273 5.227 4.546zM10.988 8.869c.582-.512 1.12-1.05 1.71-1.496.828-.622 1.145-1.394.949-2.721-.588.554-1.007 1.22-1.46 1.826-.479.639-.834 1.4-1.233 2.115-.031.058.019.172.034.276zm19.614 19.355c-.543-.043-1.089.067-1.429.405-.646.64-1.414.961-2.196 1.281-.41.168-.797.414-1.184.649-.053.032-.063.205-.052.307.004.034.148.091.208.067.702-.276 1.427-.498 2.092-.866.815-.45 1.58-1.021 2.36-1.55.082-.053.125-.178.201-.294zM9.875 19.353c-.156.529-.125.823-.027 1.135.272.866.437 1.78.927 2.537.182.281.219.908.554.773.295-.118-.05-.615-.07-.95-.077-1.28-.662-2.311-1.384-3.495zm5.263-15.938.073.126c.405-.173.814-.337 1.216-.522.872-.403 1.741-.813 2.608-1.231.175-.085.335-.221.484-.359.042-.039.034-.172.021-.254-.007-.037-.089-.076-.137-.079a.73.73 0 0 0-.239.046c-1.178.385-2.289.956-3.352 1.648-.249.162-.45.414-.673.624zm20.69 13.745c.071-.095.127-.135.131-.18.115-1.394-.013-2.776-.179-4.154-.008-.069-.092-.168-.148-.177-.063-.009-.16.05-.198.115a.818.818 0 0 0-.113.345 15.18 15.18 0 0 0 .194 3.395c.038.226.2.424.314.655zM9.591 13.312c.46-.202.528-.568.578-.898.12-.805.42-1.58.321-2.431-.481 1.016-.907 2.045-.899 3.329zm11.127 17.673c-1.031-.525-1.31-.58-2.228-.433.389.17.739.439 1.091.444.367.006.764.524 1.137-.011z"/><path d="M22.843 20.542c-.705-.015-1.189-.354-1.547-1.011-.334-.612-.889-.93-1.398-1.307-.641-.475-1.163-1.011-1.311-1.975a2.998 2.998 0 0 1 .247-1.736 2.8 2.8 0 0 1 .9-1.088c.393-.278.718-.54.9-1.053.205-.591.722-.626 1.18-.733.431-.1.87-.164 1.295-.289.582-.171 1.109-.118 1.534.403.328.405.712.695 1.139.941.445.255.591.553.452 1.086-.095.362-.003.608.114.897.128.315.26.635.348.968.293 1.107-.044 2.039-.946 2.532-.559.305-.987.713-1.126 1.429-.056.289-.212.452-.433.527-.446.15-.899.274-1.348.409zm2.958-4.641c.014-1.95-1.269-3.51-2.938-3.512-1.498 0-3.004 1.167-3.063 3.404-.047 1.79 1.248 3.458 2.936 3.464 2.056.012 3.025-1.632 3.065-3.356zm-6.017 1.864c0-.25.021-.378-.003-.493-.221-1.059-.365-2.109.137-3.129.036-.073-.047-.224-.075-.339-.099.037-.218.044-.292.115-.83.784-1.2 2.667.234 3.847zm3.081-5.865c.347.146.545.25.753.315.765.233 1.417.652 1.871 1.424.09.152.205.378.376.205.091-.092.121-.375.068-.516-.071-.188-.232-.422-.386-.459-.42-.101-.65-.452-.924-.757-.46-.509-.975-.669-1.758-.211zm-.047 7.676-.01-.074c-.22 0-.443-.022-.66.009-.112.016-.213.125-.319.192.096.098.18.252.291.284.593.172 1.19.209 1.774-.054.1-.045.211-.104.274-.197a.525.525 0 0 0 .062-.324c-.004-.039-.143-.099-.211-.086-.401.072-.801.164-1.2.249l-.002.001zm3.03-2c.41-.088.594-.354.618-.764a8.157 8.157 0 0 0-.013-1.037c-.006-.091-.117-.172-.179-.258-.091.1-.277.233-.26.293.167.598-.182 1.133-.166 1.764v.001zm3.755 2.7c-.024.014-.119.106-.222.118-.094.013-.231-.024-.289-.099a16.734 16.734 0 0 1-.836-1.176c-.068-.107-.096-.394-.057-.418.128-.081.379-.167.435-.096.33.419.621.88.919 1.332.029.045.02.123.05.34zM15.628 23.56c.153.014.454.025.748.083.073.015.171.18.171.278s-.084.268-.158.289c-.571.163-1.14.204-1.645-.236-.029-.031-.051-.068-.065-.11s-.019-.087-.016-.132c.011-.066.1-.157.159-.162.219-.021.439-.009.806-.009zM33.53 9.716l.216.136c-.061.126-.099.33-.188.366a7.94 7.94 0 0 1-1.263.415c-.123.028-.303-.112-.417-.227-.131-.133-.053-.423.113-.452.487-.086.977-.152 1.539-.238zM18.988 26.378c.229.123.42.157.513.289.256.365.49.75.7 1.152.103.191.009.398-.164.454-.095.03-.266-.059-.336-.157a12.751 12.751 0 0 1-.774-1.214c-.055-.1.03-.302.061-.522zm8.966-15.233c.014-.112 0-.24.046-.289.062-.065.194-.118.257-.083.087.048.143.178.202.281.166.286.329.573.487.866.07.131.165.271.171.412a.59.59 0 0 1-.148.39c-.048.05-.244.018-.292-.052-.316-.463-.695-.896-.723-1.526zm.984-4.915c-.068.472-.096.82-.175 1.153a.96.96 0 0 1-.274.456c-.091.084-.249.072-.376.103-.01-.137-.048-.281-.026-.411.067-.402.156-.8.236-1.199.006-.031.004-.064.012-.094.063-.241.199-.424.417-.325.11.05.161.271.186.317zM23.04 9.302c.192.028.441.043.678.109.081.022.201.191.187.263-.025.13-.118.3-.217.339a.725.725 0 0 1-.482.003c-.274-.1-.529-.134-.801-.002-.179.087-.348-.004-.395-.21-.064-.276.116-.409.318-.448.216-.041.438-.035.713-.053zm4.266 13.572c-.078.391-.137.734-.221 1.069-.016.066-.137.154-.187.139-.091-.026-.219-.108-.237-.194a1.477 1.477 0 0 1-.014-.566c.064-.343.128-.669.007-1.02-.057-.168-.041-.436.181-.435.119 0 .291.17.345.311.087.225.093.489.127.697zm-3.366-.1c-.044.092-.066.2-.125.246-.36.286-.721.573-1.1.823-.097.064-.267.024-.39-.018-.181-.062-.219-.336-.068-.447.415-.306.832-.609 1.259-.891.068-.045.205.004.294.054.06.035.085.146.131.233zM19.351 4.41c.058.039.169.074.183.136.143.607.281 1.215.394 1.829.031.17-.165.265-.296.163-.414-.32-.671-1.507-.43-2.004.025-.049.086-.074.148-.125zm5.111 1.723c-.125-.096-.259-.144-.277-.227-.02-.09.045-.243.115-.315.303-.312.621-.606.951-.88.111-.09.342-.154.428-.083.202.163.096.394-.045.562-.189.227-.376.466-.594.65-.167.138-.381.198-.577.294zm-7.864 3.205-.302.329c-.086-.107-.214-.197-.25-.325a26.167 26.167 0 0 1-.382-1.526c-.016-.07.034-.215.085-.239.084-.039.222-.055.285 0 .126.107.269.25.31.41.108.417.165.853.254 1.351zm-3.311 8.42c-.277.585-.488 1.185-1.005 1.504-.087.054-.279-.015-.372-.1-.158-.144 0-.265.077-.388.242-.384.467-.785.724-1.155.066-.095.235-.142.35-.129.078.008.142.161.226.267zm3.134.05c.145.096.25.125.269.189.032.104.049.267 0 .339-.079.115-.215.181-.332.258-.303.2-.603.412-.918.583a.371.371 0 0 1-.356-.034c-.176-.144-.114-.376.027-.478.433-.312.888-.585 1.309-.857zm15.683-2.651c-.111.289-.268.726-.454 1.146-.029.065-.209.1-.285.061-.071-.037-.148-.201-.134-.29.075-.466.157-.935.283-1.385.038-.137.211-.262.344-.308.049-.017.178.197.239.328.035.074.006.187.006.448zM13.2 11.678c.491.507.432 1.196.487 1.831.01.118-.117.287-.219.372-.053.045-.27-.027-.275-.069a41.603 41.603 0 0 1-.184-1.934c-.004-.055.112-.122.192-.201zm11.471 15.701c.082.025.163.056.242.091.295.157.591.311.879.484.137.082.274.184.372.315.113.152-.016.442-.174.403-.535-.133-1.058-.319-1.458-.779-.059-.068-.058-.239-.039-.352.011-.064.115-.108.177-.162zM18.16 11.864c.028.102.126.26.091.359-.18.526-.388 1.039-.599 1.549-.026.063-.137.118-.203.108-.057-.008-.137-.101-.152-.172-.112-.568.241-1.585.636-1.841.041-.026.106-.004.226-.004zm15.298 8.625c-.062-.045-.19-.1-.257-.206-.027-.042.06-.234.134-.296.329-.276.665-.539 1.015-.774.094-.063.291-.068.36.003.064.066.074.315.016.406-.293.471-.664.83-1.268.866zm-2.032 4.054c-.254-.03-.364-.033-.47-.061-.045-.011-.111-.072-.112-.112a.46.46 0 0 1 .058-.254.426.426 0 0 1 .205-.148c.391-.135.783-.271 1.18-.381.086-.024.268.042.279.098a.9.9 0 0 1-.051.433c-.024.072-.121.131-.195.157-.34.108-.681.204-.894.267zm-11.784-3.254c-.028.137-.074.442-.161.729-.022.071-.193.14-.272.114s-.171-.175-.169-.268c.008-.531.031-1.063.078-1.592.01-.115.137-.217.21-.325.088.107.23.201.252.323.05.274.039.562.062 1.019zM37.981 4.672c0-1.125.236-1.978.709-2.559.478-.587 1.091-.881 1.837-.881s1.34.253 1.78.76c.446.507.669 1.317.669 2.429s-.236 1.953-.709 2.522c-.473.569-1.104.853-1.893.853-.682 0-1.241-.226-1.676-.677-.225-.235-.403-.559-.532-.974-.124-.42-.185-.912-.185-1.474zm2.522-3.348c-.542 0-.988.278-1.337.835-.344.556-.515 1.372-.515 2.448s.164 1.861.492 2.355c.327.495.763.742 1.305.742.548 0 .994-.278 1.337-.835.349-.563.524-1.375.524-2.439 0-1.069-.166-1.854-.499-2.355-.328-.501-.763-.751-1.305-.751zm3.867 6.435h-.669V1.268h.669v2.986h2.619V1.268h.669v6.491h-.669V4.347H44.37v3.412zm6.725 0h-.105l.701-6.491h.266l1.692 5.999 1.684-5.999h.266l.701 6.491h-.669l-.556-5.192-1.458 5.192h-.508l-1.474-5.128-.54 5.128zm9.668-6.49a.667.667 0 0 1 .153.454c0 .155-.03.312-.089.473l-1.442 3.366v2.197h-.669V5.765l-1.612-4.497h.685l1.539 4.182 1.402-3.255c.059-.155.089-.315.089-.482s-.04-.297-.121-.389l.064-.056zM1.136 9.465c.416-.022.823-.033 1.221-.033.407 0 .833.049 1.278.147.454.098.899.283 1.335.556.445.261.819.605 1.122 1.029.312.414.563.964.753 1.65s.284 1.52.284 2.5-.142 1.863-.426 2.647c-.274.773-.653 1.367-1.136 1.781-.937.806-2.068 1.209-3.393 1.209-.464 0-.951-.022-1.462-.065h-.71V9.465h1.136zm.042 11.29c.199.022.45.033.752.033s.53-.005.681-.016c.151-.011.36-.054.625-.131.265-.087.511-.202.738-.343s.464-.349.71-.621c.256-.283.473-.615.653-.997.407-.893.611-2.059.611-3.497 0-1.024-.109-1.906-.327-2.647-.218-.752-.469-1.307-.752-1.667a3.001 3.001 0 0 0-1.008-.85c-.398-.218-.715-.343-.951-.376s-.511-.049-.823-.049-.615.016-.909.049v11.111zm37.034.131h-.185V9.448h.483l5.906 10.572V9.448h.185v11.438h-1.036l-5.353-9.477v9.477zM53.343 9.448h.185v6.536c0 1.71-.293 2.968-.88 3.774-.587.795-1.354 1.193-2.3 1.193-.596 0-1.103-.06-1.519-.18a3.145 3.145 0 0 1-1.179-.703c-.757-.675-1.136-2.037-1.136-4.085V9.447h1.179v6.519c0 1.983.26 3.306.781 3.97.265.327.539.55.824.67.293.12.643.18 1.051.18.909 0 1.633-.381 2.172-1.144.549-.773.824-1.999.824-3.676V9.447zm5.028 11.438h-1.179V9.612h-2.456v-.163h6.105v.163H58.37v11.274z"/></symbol><symbol id="icon-rate-1" viewBox="0 0 181 32"><path fill="#ab816c" style="fill:var(--color1,#ab816c)" d="M14.732 3.903c.399-1.228 2.137-1.228 2.536 0l2.025 6.232c.178.549.69.921 1.268.921h6.552c1.292 0 1.829 1.653.784 2.412l-5.301 3.851a1.333 1.333 0 0 0-.484 1.491l2.025 6.232c.399 1.228-1.007 2.25-2.052 1.491l-5.301-3.851a1.334 1.334 0 0 0-1.567 0l-5.301 3.851c-1.045.759-2.451-.262-2.052-1.491l2.025-6.232a1.335 1.335 0 0 0-.484-1.491l-5.301-3.851c-1.045-.759-.508-2.412.784-2.412h6.552c.578 0 1.09-.372 1.268-.921l2.025-6.232zm149.333 0c.399-1.228 2.137-1.228 2.536 0l2.025 6.232c.179.549.689.921 1.268.921h6.552c1.292 0 1.828 1.653.784 2.412l-5.301 3.851a1.333 1.333 0 0 0-.484 1.491l2.024 6.232c.4 1.228-1.007 2.25-2.051 1.491l-5.301-3.851a1.336 1.336 0 0 0-1.568 0l-5.301 3.851c-1.044.759-2.451-.262-2.051-1.491l2.024-6.232a1.334 1.334 0 0 0-.484-1.491l-5.301-3.851c-1.044-.759-.508-2.412.784-2.412h6.552c.579 0 1.089-.372 1.268-.921l2.025-6.232zm-37.333 0c.399-1.228 2.137-1.228 2.536 0l2.025 6.232c.178.549.69.921 1.268.921h6.552c1.292 0 1.828 1.653.784 2.412l-5.301 3.851a1.333 1.333 0 0 0-.484 1.491l2.024 6.232c.4 1.228-1.007 2.25-2.051 1.491l-5.302-3.851a1.334 1.334 0 0 0-1.567 0l-5.301 3.851c-1.045.759-2.451-.262-2.052-1.491l2.025-6.232a1.334 1.334 0 0 0-.484-1.491l-5.301-3.851c-1.045-.759-.508-2.412.784-2.412h6.552c.578 0 1.09-.372 1.268-.921l2.025-6.232zm-37.333 0c.399-1.228 2.137-1.228 2.536 0l2.025 6.232c.178.549.69.921 1.268.921h6.552c1.292 0 1.829 1.653.784 2.412l-5.301 3.851a1.333 1.333 0 0 0-.484 1.491l2.025 6.232c.399 1.228-1.007 2.25-2.052 1.491l-5.301-3.851a1.334 1.334 0 0 0-1.567 0l-5.301 3.851c-1.045.759-2.451-.262-2.052-1.491l2.025-6.232a1.334 1.334 0 0 0-.484-1.491l-5.301-3.851c-1.045-.759-.508-2.412.784-2.412h6.552c.578 0 1.09-.372 1.268-.921L89.4 3.903zm-37.334 0c.399-1.228 2.137-1.228 2.536 0l2.025 6.232c.178.549.69.921 1.268.921h6.552c1.292 0 1.829 1.653.784 2.412l-5.301 3.851a1.333 1.333 0 0 0-.484 1.491l2.025 6.232c.399 1.228-1.007 2.25-2.052 1.491l-5.301-3.851a1.334 1.334 0 0 0-1.567 0l-5.301 3.851c-1.045.759-2.451-.262-2.052-1.491l2.025-6.232a1.334 1.334 0 0 0-.484-1.491l-5.301-3.851c-1.045-.759-.508-2.412.784-2.412h6.552c.578 0 1.09-.372 1.268-.921l2.025-6.232z"/></symbol><symbol id="icon-rate" viewBox="0 0 173 32"><path fill="#ab816c" style="fill:var(--color1,#ab816c)" d="M14.249 4.68c.383-1.179 2.051-1.179 2.435 0l1.908 5.872a1.28 1.28 0 0 0 1.217.884h6.174c1.24 0 1.756 1.587.752 2.316l-4.995 3.629a1.28 1.28 0 0 0-.465 1.431l1.908 5.872c.383 1.179-.967 2.16-1.97 1.431l-4.995-3.629a1.28 1.28 0 0 0-1.505 0l-4.995 3.629c-1.003.729-2.353-.252-1.97-1.431l1.908-5.872a1.28 1.28 0 0 0-.465-1.431l-4.995-3.629c-1.003-.729-.488-2.316.752-2.316h6.174c.555 0 1.046-.357 1.217-.884l1.908-5.872z"/><path fill="none" stroke="#ab816c" style="stroke:var(--color1,#ab816c)" stroke-width="1.28" d="M156.724 4.878c.192-.59 1.027-.59 1.217 0l1.908 5.872a1.919 1.919 0 0 0 1.825 1.327h6.175c.62 0 .878.793.376 1.158l-4.996 3.629a1.924 1.924 0 0 0-.698 2.147l1.908 5.872c.192.59-.484 1.08-.984.716l-4.996-3.629a1.92 1.92 0 0 0-2.257 0l-4.995 3.629c-.502.364-1.176-.126-.986-.716l1.908-5.872a1.92 1.92 0 0 0-.698-2.147l-4.995-3.629c-.502-.364-.244-1.158.376-1.158h6.173c.832 0 1.569-.536 1.827-1.327l1.907-5.872z"/><path fill="#ab816c" style="fill:var(--color1,#ab816c)" d="M120.649 4.68c.383-1.179 2.051-1.179 2.435 0l1.908 5.872a1.28 1.28 0 0 0 1.217.884h6.173c1.24 0 1.756 1.587.753 2.316l-4.995 3.629a1.28 1.28 0 0 0-.465 1.431l1.908 5.872c.384 1.179-.966 2.16-1.969 1.431l-4.995-3.629a1.28 1.28 0 0 0-1.505 0l-4.995 3.629c-1.003.729-2.353-.252-1.97-1.431l1.908-5.872a1.28 1.28 0 0 0-.465-1.431l-4.995-3.629c-1.003-.729-.488-2.316.752-2.316h6.174c.555 0 1.046-.357 1.217-.884l1.908-5.872zm-35.466 0c.383-1.179 2.052-1.179 2.435 0l1.908 5.872a1.28 1.28 0 0 0 1.217.884h6.174c1.24 0 1.756 1.587.752 2.316l-4.995 3.629a1.28 1.28 0 0 0-.465 1.431l1.908 5.872c.383 1.179-.967 2.16-1.97 1.431l-4.995-3.629a1.28 1.28 0 0 0-1.505 0l-4.995 3.629c-1.003.729-2.353-.252-1.97-1.431l1.908-5.872a1.28 1.28 0 0 0-.465-1.431l-4.995-3.629c-1.003-.729-.488-2.316.752-2.316h6.174c.555 0 1.046-.357 1.217-.884l1.908-5.872zm-35.467 0c.383-1.179 2.052-1.179 2.435 0l1.908 5.872a1.28 1.28 0 0 0 1.217.884h6.174c1.24 0 1.756 1.587.752 2.316l-4.995 3.629a1.28 1.28 0 0 0-.465 1.431l1.908 5.872c.383 1.179-.967 2.16-1.97 1.431l-4.995-3.629a1.28 1.28 0 0 0-1.505 0l-4.995 3.629c-1.003.729-2.353-.252-1.97-1.431l1.908-5.872a1.28 1.28 0 0 0-.465-1.431l-4.995-3.629c-1.003-.729-.488-2.316.752-2.316h6.174a1.28 1.28 0 0 0 1.217-.884l1.908-5.872z"/></symbol><symbol id="icon-facebook" viewBox="0 0 32 32"><path d="M24.649.007 20.499 0c-4.662 0-7.675 3.091-7.675 7.875v3.631H8.652a.652.652 0 0 0-.652.653v5.261c0 .361.292.652.652.652h4.172v13.275c0 .36.292.652.652.652h5.444a.651.651 0 0 0 .652-.652V18.072h4.878c.36 0 .652-.292.652-.652l.002-5.261a.652.652 0 0 0-.653-.652h-4.88V8.429c0-1.479.353-2.23 2.28-2.23l2.795-.001c.36 0 .652-.292.652-.652V.661a.652.652 0 0 0-.651-.652z"/></symbol><symbol id="icon-twitter" viewBox="0 0 32 32"><path d="M32 6.999a13.92 13.92 0 0 1-3.78 1.009c1.36-.791 2.398-2.034 2.886-3.533a13.303 13.303 0 0 1-4.16 1.547 6.656 6.656 0 0 0-4.792-2.023c-3.632 0-6.556 2.872-6.556 6.394 0 .507.044.994.152 1.458A18.733 18.733 0 0 1 2.228 5.165a6.31 6.31 0 0 0-.898 3.231c0 2.214 1.17 4.176 2.914 5.312a6.625 6.625 0 0 1-2.964-.787v.07c0 3.106 2.274 5.686 5.256 6.281a6.722 6.722 0 0 1-1.72.21c-.42 0-.844-.023-1.242-.109.85 2.531 3.262 4.392 6.13 4.453a13.405 13.405 0 0 1-8.134 2.726c-.538 0-1.054-.023-1.57-.088 2.906 1.826 6.35 2.869 10.064 2.869 12.072 0 18.672-9.744 18.672-18.189 0-.283-.01-.555-.024-.826A12.903 12.903 0 0 0 32 6.999z"/></symbol><symbol id="icon-instagram" viewBox="0 0 32 32"><path d="M16.316 32h-.319c-2.508.006-4.826-.058-7.08-.195-2.066-.126-3.953-.84-5.455-2.065-1.45-1.182-2.44-2.781-2.942-4.75-.438-1.715-.461-3.398-.483-5.026a343.853 343.853 0 0 1-.036-3.96c.003-1.414.02-2.798.036-3.966.022-1.628.045-3.311.483-5.026.503-1.97 1.493-3.568 2.942-4.75C4.965 1.037 6.851.323 8.918.197 11.172.06 13.49-.004 16.004.002c2.509-.005 4.826.058 7.08.195 2.066.126 3.953.84 5.455 2.065 1.45 1.182 2.44 2.781 2.943 4.75.437 1.715.461 3.398.483 5.026.016 1.168.033 2.553.036 3.96v.006c-.003 1.408-.02 2.792-.036 3.96-.022 1.628-.045 3.311-.483 5.026-.503 1.97-1.493 3.568-2.943 4.75-1.502 1.225-3.389 1.939-5.455 2.065-2.159.131-4.376.195-6.768.195zm-.319-2.5c2.468.006 4.733-.056 6.934-.19 1.563-.095 2.917-.602 4.027-1.507 1.026-.837 1.732-1.991 2.1-3.431.364-1.428.385-2.96.406-4.442.016-1.16.032-2.535.036-3.929-.004-1.394-.02-2.769-.036-3.929-.02-1.482-.041-3.015-.406-4.443-.367-1.44-1.074-2.594-2.1-3.431-1.11-.905-2.465-1.412-4.027-1.507a108.807 108.807 0 0 0-6.928-.19c-2.467-.006-4.733.056-6.934.19-1.563.095-2.917.602-4.027 1.507-1.026.837-1.732 1.991-2.1 3.431-.364 1.428-.385 2.96-.406 4.443a363.726 363.726 0 0 0-.036 3.932c.003 1.389.02 2.765.036 3.926.02 1.482.041 3.015.406 4.442.367 1.44 1.074 2.594 2.1 3.431 1.11.905 2.465 1.412 4.027 1.507 2.201.134 4.467.197 6.928.191zm-.06-5.688c-4.308 0-7.813-3.505-7.813-7.812s3.505-7.813 7.813-7.813S23.75 11.692 23.75 16s-3.505 7.812-7.813 7.812zm0-13.125c-2.929 0-5.313 2.383-5.313 5.313s2.383 5.312 5.313 5.312c2.93 0 5.313-2.383 5.313-5.312s-2.383-5.313-5.313-5.313zm8.688-5a1.875 1.875 0 1 0 0 3.75 1.875 1.875 0 0 0 0-3.75z"/></symbol><symbol id="icon-tel" viewBox="0 0 32 32"><path d="M29.43 20.469c-1.959 0-3.882-.299-5.705-.886-.893-.297-1.991-.025-2.536.521l-3.598 2.647c-4.172-2.171-6.743-4.675-8.939-8.711l2.636-3.415c.685-.667.931-1.64.636-2.554a17.324 17.324 0 0 1-.912-5.57c0-1.38-1.152-2.502-2.567-2.502H2.569C1.153-.001.001 1.122.001 2.501c0 15.816 13.202 28.682 29.43 28.682 1.416 0 2.568-1.122 2.568-2.502V22.97c0-1.38-1.152-2.502-2.568-2.502z"/></symbol><symbol id="icon-location" viewBox="0 0 23 32"><path d="M11.733 0c6.47 0 11.733 5.13 11.733 11.435 0 2.495-.809 4.866-2.341 6.855l-8.669 11.379c-.022.028-.055.038-.079.063a.888.888 0 0 1-1.367-.063c-2.496-3.247-7.072-9.309-8.832-11.596l-.001-.003-.011-.014a11.154 11.154 0 0 1-2.167-6.621C-.001 5.13 5.263 0 11.732 0zm0 17.604c3.483 0 6.33-2.774 6.33-6.169s-2.847-6.169-6.33-6.169-6.33 2.774-6.33 6.169 2.847 6.169 6.33 6.169z"/></symbol><symbol id="icon-menu" viewBox="0 0 60 32"><path d="M2 0h56a2 2 0 1 1 0 4H2a2 2 0 1 1 0-4zm0 14h56a2 2 0 1 1 0 4H2a2 2 0 1 1 0-4zm0 14h56a2 2 0 1 1 0 4H2a2 2 0 1 1 0-4z"/></symbol><symbol id="icon-close" viewBox="0 0 32 32"><path d="M30.355 32a1.646 1.646 0 0 0 1.163-2.811L2.811.482A1.646 1.646 0 1 0 .483 2.811L29.19 31.517a1.65 1.65 0 0 0 1.165.483z"/><path d="M1.645 32c.422 0 .843-.16 1.163-.483L31.517 2.811A1.647 1.647 0 0 0 29.188.482L.481 29.189A1.646 1.646 0 0 0 1.644 32z"/></symbol><symbol id="icon-Frame-22" viewBox="0 0 32 32"><path fill="#674d40" style="fill:var(--color1,#674d40)" d="M24.62 16.411c0-5.844-6.16-9.674-12.31-9.674C6.135 6.737 0 10.585 0 16.411c0 2.204.965 4.359 2.718 6.069.067.066.093.165.067.259-.551 2.017-1.855 3.839-2.39 4.529a.69.69 0 0 0-.071.741.69.69 0 0 0 .621.382h.018c2.618-.065 5.653-.804 7.529-2.649a.27.27 0 0 1 .252-.068c1.153.273 2.353.412 3.566.412 6.173 0 12.31-3.847 12.31-9.674zm-15.66 8.35a1.199 1.199 0 0 0-1.125.312c-1.876 1.845-4.939 2.264-6.39 2.357.662-.914 1.74-2.594 2.244-4.444a1.202 1.202 0 0 0-.317-1.177C1.779 20.255.937 18.389.937 16.411c0-4.817 5.102-8.737 11.373-8.737s11.373 3.919 11.373 8.737-5.102 8.737-11.373 8.737c-1.141 0-2.268-.13-3.35-.387z"/><path fill="#674d40" style="fill:var(--color1,#674d40)" d="M27.636 24.2c2.733-1.381 4.365-3.735 4.365-6.297 0-3.621-3.273-6.714-7.782-7.356a.47.47 0 0 0-.132.928c4.043.575 6.977 3.279 6.977 6.428 0 2.201-1.439 4.242-3.85 5.46a1.16 1.16 0 0 0-.611 1.274c.229 1.074.715 2.069 1.104 2.743-2.768-.461-3.817-1.789-4.149-2.364a1.157 1.157 0 0 0-1.001-.575h-.038c-.52 0-1.04-.036-1.547-.107a.469.469 0 0 0-.13.928c.55.077 1.114.116 1.677.116h.039c.078 0 .15.041.188.106 1.27 2.2 4.188 2.762 5.384 2.901.264.031.516-.09.657-.316s.139-.504-.005-.728c-.36-.561-1.003-1.684-1.262-2.901a.22.22 0 0 1 .117-.242zm-22.62-9.466c-.896 0-1.625.729-1.625 1.625s.729 1.625 1.625 1.625 1.625-.729 1.625-1.625-.729-1.625-1.625-1.625zm0 2.312a.688.688 0 1 1 .001-1.375.688.688 0 0 1-.001 1.375zm4.634-2.312c-.896 0-1.625.729-1.625 1.625s.729 1.625 1.625 1.625 1.625-.729 1.625-1.625-.729-1.625-1.625-1.625zm0 2.312a.688.688 0 1 1 .001-1.375.688.688 0 0 1-.001 1.375zm4.635-2.312c-.896 0-1.625.729-1.625 1.625s.729 1.625 1.625 1.625 1.625-.729 1.625-1.625-.729-1.625-1.625-1.625zm0 2.312a.688.688 0 1 1 .001-1.375.688.688 0 0 1-.001 1.375zm4.634-2.312c-.896 0-1.625.729-1.625 1.625s.729 1.625 1.625 1.625 1.625-.729 1.625-1.625-.729-1.625-1.625-1.625zm0 2.312a.688.688 0 1 1 .001-1.375.688.688 0 0 1-.001 1.375z"/></symbol><symbol id="icon-Frame-21" viewBox="0 0 32 32"><path fill="#674d40" style="fill:var(--color1,#674d40)" d="M16 0C7.178 0 0 7.178 0 16s7.178 16 16 16 16-7.178 16-16S24.822 0 16 0zm0 30.933C7.766 30.933 1.067 24.234 1.067 16S7.766 1.067 16 1.067 30.933 7.766 30.933 16 24.234 30.933 16 30.933z"/><path fill="#674d40" style="fill:var(--color1,#674d40)" d="M16.533 13.878V8.469a.533.533 0 1 0-1.066 0v5.409a2.13 2.13 0 0 0-1.524 1.524h-3.809a.533.533 0 1 0 0 1.066h3.809a2.132 2.132 0 0 0 2.058 1.6 2.135 2.135 0 0 0 2.133-2.133c0-.991-.683-1.819-1.6-2.058zM16 17.002a1.068 1.068 0 0 1 0-2.134 1.068 1.068 0 0 1 0 2.134zm0-11.733a.533.533 0 0 0 .533-.533v-.533a.533.533 0 1 0-1.066 0v.533c0 .295.239.533.533.533zm0 21.333a.533.533 0 0 0-.533.533v.533a.533.533 0 1 0 1.066 0v-.533a.533.533 0 0 0-.533-.533zm11.733-11.2H27.2a.533.533 0 1 0 0 1.066h.533a.533.533 0 1 0 0-1.066zm-22.933 0h-.533a.533.533 0 1 0 0 1.066H4.8a.533.533 0 1 0 0-1.066zm19.119-8.141-.377.377a.532.532 0 0 0 .377.91.532.532 0 0 0 .377-.156l.377-.377a.534.534 0 0 0-.754-.754zM7.703 23.478l-.377.377a.532.532 0 0 0 .377.91.532.532 0 0 0 .377-.156l.377-.377a.534.534 0 0 0-.754-.754zm16.594 0a.533.533 0 1 0-.754.754l.377.377a.532.532 0 1 0 .754-.754l-.377-.377zM8.08 7.261a.533.533 0 1 0-.754.754l.377.377a.532.532 0 1 0 .754-.754l-.377-.377z"/></symbol><symbol id="icon-Frame-20" viewBox="0 0 32 32"><path fill="#674d40" style="fill:var(--color1,#674d40)" d="M10.936 1.684c-3.395 0-6.161 2.765-6.161 6.161s2.765 6.161 6.161 6.161c3.395 0 6.161-2.765 6.161-6.161s-2.765-6.161-6.161-6.161zm0 11.288c-2.835 0-5.134-2.305-5.134-5.134s2.305-5.134 5.134-5.134c2.835 0 5.134 2.305 5.134 5.134s-2.305 5.134-5.134 5.134zm12.617-8.73c-2.551 0-4.623 2.072-4.623 4.624s2.072 4.624 4.623 4.624 4.624-2.072 4.624-4.624-2.072-4.624-4.624-4.624zm0 8.226c-1.984 0-3.597-1.613-3.597-3.597s1.613-3.597 3.597-3.597 3.597 1.613 3.597 3.597-1.612 3.597-3.597 3.597z"/><path fill="#674d40" style="fill:var(--color1,#674d40)" d="M31.824 20.267c-.466-2.809-2.211-5.178-5.184-6.419 0 0-1.317.995-3.086.964-1.934-.038-3.087-.964-3.087-.964s-1.436.535-2.595 1.65c-1.071-.951-2.879-1.726-2.879-1.726s-1.657 1.26-4.063 1.241c-2.526-.019-4.05-1.241-4.05-1.241S1.419 15.649.266 22.017c0 0-1.235 3.376 1.625 8.422h18.097s1.285-2.236 1.512-3.597h9.001c2.211-3.351 1.323-6.576 1.323-6.576zm-12.473 9.146H2.526c-2.198-4.176-1.247-7.225-1.247-7.225a9.758 9.758 0 0 1 5.524-7.257c2.52 1.48 5.751 1.48 8.271 0a9.758 9.758 0 0 1 5.524 7.257c-.006 0 .907 3.754-1.247 7.225zm10.551-3.597h-8.195c.315-1.814-.101-3.798-.101-3.798a10.768 10.768 0 0 0-2.98-5.827 7.34 7.34 0 0 1 1.757-1.184 6.44 6.44 0 0 0 6.331 0 7.34 7.34 0 0 1 4.094 5.43s.75 2.545-.907 5.379z"/></symbol><symbol id="icon-Frame-19" viewBox="0 0 32 32"><path fill="#674d40" style="fill:var(--color1,#674d40)" d="M23.15 9.631a.456.456 0 0 1-.457-.457 6.696 6.696 0 0 0-6.692-6.558 6.694 6.694 0 0 0-6.692 6.558.455.455 0 0 1-.457.457.455.455 0 0 1-.457-.457 7.608 7.608 0 0 1 15.212 0 .455.455 0 0 1-.457.457z"/><path fill="#674d40" style="fill:var(--color1,#674d40)" d="M24.484 19.976a.457.457 0 1 1-.005-.915 6.645 6.645 0 0 0 6.607-6.56 6.64 6.64 0 0 0-6.688-6.574 6.792 6.792 0 0 0-1.992.295.456.456 0 0 1-.268-.874 7.723 7.723 0 0 1 2.26-.336A7.552 7.552 0 0 1 32 12.5a7.561 7.561 0 0 1-7.51 7.474h-.006zm-16.969 0H7.51A7.565 7.565 0 0 1 0 12.502a7.552 7.552 0 0 1 7.602-7.488 7.695 7.695 0 0 1 2.26.336.47.47 0 0 1 .275.221.454.454 0 0 1-.191.622.46.46 0 0 1-.352.03 6.792 6.792 0 0 0-1.992-.295 6.64 6.64 0 0 0-6.688 6.574 6.646 6.646 0 0 0 6.607 6.56.455.455 0 0 1 .319.783.465.465 0 0 1-.324.132z"/><path fill="#674d40" style="fill:var(--color1,#674d40)" d="M24.485 31.348H7.516a.455.455 0 0 1-.457-.457V19.519a.456.456 0 0 1 .914 0v10.915h16.055V19.519a.456.456 0 0 1 .914 0v11.372a.456.456 0 0 1-.457.457z"/><path fill="#674d40" style="fill:var(--color1,#674d40)" d="M27.666 26.918H10.697a.455.455 0 0 1-.457-.457.455.455 0 0 1 .457-.457h16.969a.456.456 0 0 1 0 .914z"/></symbol><symbol id="icon-logo" viewBox="0 0 62 32"><path d="M36.592 15.891c0 .259-.007.518 0 .777.077 2.635-.637 5.009-1.784 7.248a34.703 34.703 0 0 0-1.083 2.298c-.273.645-.653 1.097-1.243 1.361-.33.147-.635.402-.912.665-1.272 1.21-2.715 2.077-4.259 2.687-1.025.405-2.081.762-3.195.746-.332-.004-.665.113-.998.114s-.665-.123-.995-.107c-1.436.071-2.767-.438-4.088-.973-1.442-.583-2.715-1.503-3.913-2.6-1.69-1.547-2.894-3.496-3.78-5.727-.477-1.203-.866-2.444-.975-3.778-.018-.222-.082-.441-.139-.655-.402-1.497-.171-2.965.078-4.457.19-1.141.386-2.268.756-3.351.979-2.865 2.533-5.21 4.685-7.053C16.541 1.551 18.55.608 20.733.203c2.505-.465 4.951-.13 7.325.956 1.184.544 2.302 1.233 3.277 2.145.91.851 1.731 1.846 2.507 2.863.703.922 1.202 2.02 1.647 3.141.696 1.751 1.15 3.562 1.103 5.509-.01.36-.003.716-.003 1.073zm-.962-3.546c-.069-.612-.113-1.32-.242-2.008-.37-1.979-1.365-3.524-2.69-4.786-.753-.717-1.573-1.341-2.382-1.974-.274-.215-.592-.412-.912-.478-.822-.175-1.654-.337-2.487-.387-1.447-.085-2.746-.515-3.838-1.674C22.275.186 21.4.103 20.564.854c-.947.85-2.025 1.348-3.123 1.842-.805.362-1.58.818-2.354 1.268-.647.377-1.024.965-1.015 1.855.005.499-.194.917-.595 1.193a9.234 9.234 0 0 0-.963.768c-.856.776-1.524 1.651-1.668 3.007-.114 1.073-.396 2.134-1.034 3.018a2.199 2.199 0 0 0-.381 1.062c-.059.802-.035 1.614-.017 2.421.005.216.086.448.182.638.221.449.461.885.72 1.306.627 1.004 1.172 2.032 1.298 3.307.122 1.235.64 2.242 1.516 3.01 1.269 1.113 2.493 2.295 3.781 3.379.692.584 1.434 1.095 2.347 1.213s1.809.405 2.628.935c.172.107.36.173.554.196 1.155.143 2.225-.186 3.24-.809.318-.195.646-.373.975-.542.793-.409 1.672-.677 2.363-1.247.768-.635 1.59-.916 2.472-1.094a1.5 1.5 0 0 0 .94-.584c.296-.387.57-.797.878-1.171.319-.386.549-.797.605-1.347.086-.844.399-1.588.796-2.304.673-1.209 1.056-2.545 1.255-3.966.052-.373.082-.688-.078-1.016-.463-.946-.274-2.021-.421-3.028-.074-.545.097-1.14.168-1.819l-.002.001zM30.054 2.89c-.196-.249-.258-.362-.346-.432-.16-.127-.334-.232-.504-.342C27.75 1.172 26.157.714 24.53.384c-.327-.067-.671-.037-1.004-.022-.087.004-.19.101-.245.188-.025.04.032.179.08.246.362.497.834.872 1.366 1.085.919.381 1.885.59 2.861.619.413.013.826.103 1.238.168.351.057.702.126 1.231.222zM17.699 30.084c-.976-.919-1.832-1.74-2.702-2.539a102.694 102.694 0 0 0-2.194-1.939c-.083-.072-.213-.07-.394-.124.888 1.717 3.852 4.325 5.291 4.602zM11.122 8.641c.589-.518 1.133-1.063 1.731-1.514.838-.629 1.159-1.411.961-2.754-.595.56-1.019 1.235-1.478 1.849-.485.647-.844 1.417-1.248 2.141-.031.059.019.174.034.279zm19.853 19.591c-.549-.043-1.102.068-1.447.41-.654.648-1.431.973-2.223 1.297-.416.17-.807.419-1.198.657-.054.033-.064.208-.053.311.004.035.15.092.21.068.711-.279 1.445-.504 2.117-.877.825-.456 1.6-1.033 2.389-1.569.083-.053.126-.18.204-.297zM9.996 19.253c-.158.536-.127.833-.027 1.149.275.877.443 1.802.939 2.568.184.284.222.919.561.782.299-.12-.051-.622-.071-.962-.078-1.295-.67-2.339-1.401-3.537zm5.326-16.132.074.128c.41-.175.824-.341 1.231-.529a176.16 176.16 0 0 0 2.64-1.246c.177-.086.339-.224.49-.363.042-.04.035-.174.021-.257-.007-.037-.09-.077-.139-.08a.774.774 0 0 0-.242.046c-1.192.39-2.317.968-3.393 1.668-.252.164-.456.419-.681.632zm20.943 13.913c.072-.096.128-.137.132-.182.116-1.411-.014-2.81-.181-4.205-.008-.07-.093-.171-.15-.179-.063-.01-.162.051-.2.116a.827.827 0 0 0-.114.349 15.436 15.436 0 0 0 .196 3.437c.038.228.202.429.318.663zM9.708 13.139c.465-.204.535-.575.585-.909.122-.815.426-1.599.325-2.461-.486 1.028-.918 2.07-.91 3.369zm11.263 17.888c-1.043-.532-1.326-.587-2.255-.438.394.172.748.445 1.104.449.372.006.773.53 1.151-.011z"/><path d="M23.122 20.457c-.713-.015-1.203-.359-1.566-1.023-.338-.62-.9-.941-1.415-1.323-.649-.481-1.177-1.024-1.327-1.999a3.034 3.034 0 0 1 .25-1.757c.196-.436.545-.842.911-1.101.397-.281.727-.547.911-1.066.208-.598.731-.634 1.195-.742.437-.101.881-.166 1.311-.293.589-.173 1.123-.12 1.553.408.332.41.721.703 1.153.952.45.258.599.56.458 1.099-.096.366-.003.616.115.908.129.319.263.643.352.979.296 1.121-.045 2.064-.957 2.563-.566.309-.999.721-1.14 1.446-.056.292-.215.458-.438.534-.451.152-.91.278-1.365.414zm2.994-4.698c.015-1.974-1.285-3.552-2.974-3.555-1.516 0-3.041 1.181-3.1 3.446-.047 1.812 1.263 3.5 2.971 3.507 2.081.012 3.062-1.652 3.102-3.397zm-6.09 1.887c0-.253.021-.383-.003-.499-.224-1.072-.37-2.134.139-3.167.037-.074-.048-.227-.076-.344-.1.037-.22.045-.296.116-.84.794-1.214 2.7.236 3.894zm3.118-5.937c.351.148.552.253.762.319.774.236 1.434.66 1.894 1.442.091.154.208.383.381.207.092-.094.122-.38.069-.523-.072-.19-.234-.427-.391-.465-.425-.102-.658-.457-.935-.766-.466-.515-.986-.677-1.78-.214zm-.048 7.77-.01-.075c-.223 0-.448-.022-.668.009-.113.016-.215.126-.322.194.097.099.182.255.294.288.6.174 1.204.212 1.796-.055.101-.046.214-.106.277-.199a.537.537 0 0 0 .063-.328c-.005-.04-.144-.1-.214-.087-.406.073-.811.166-1.214.252l-.002.001zm3.067-2.024c.416-.089.601-.359.625-.773.018-.35.014-.7-.013-1.049-.007-.092-.118-.174-.181-.261-.092.101-.28.236-.263.297.169.605-.184 1.147-.168 1.786v.001zm3.801 2.733c-.024.014-.12.107-.224.12-.095.013-.233-.024-.292-.1a16.919 16.919 0 0 1-.846-1.191c-.069-.108-.098-.398-.058-.424.13-.082.384-.169.44-.097.334.424.628.891.93 1.348.029.046.02.124.051.344zm-14.145 3.324c.154.014.459.025.757.084.074.015.173.182.173.281s-.085.272-.16.293c-.578.165-1.154.206-1.665-.239a.334.334 0 0 1-.081-.245c.011-.067.101-.159.161-.164.222-.022.445-.01.815-.01zm18.12-14.013.219.138c-.062.128-.1.334-.19.371a8.06 8.06 0 0 1-1.278.42c-.125.028-.306-.113-.422-.23-.133-.135-.054-.428.114-.458.493-.087.989-.154 1.557-.241zM19.22 26.365c.231.124.425.159.519.292.259.37.496.759.709 1.166.104.194.009.403-.166.459-.096.031-.27-.059-.34-.159a12.74 12.74 0 0 1-.783-1.229c-.055-.102.03-.306.061-.528zm9.075-15.42c.015-.113 0-.243.046-.293.062-.065.196-.12.26-.084.088.048.144.181.205.285.168.289.333.58.493.877.071.133.167.274.173.417a.6.6 0 0 1-.15.395c-.048.051-.247.018-.295-.053-.32-.468-.704-.907-.732-1.544zm.996-4.975c-.069.478-.097.83-.178 1.167a.984.984 0 0 1-.277.462c-.092.085-.252.073-.381.104-.01-.139-.048-.284-.026-.416.068-.407.158-.81.239-1.214.006-.032.005-.065.012-.096.064-.244.202-.43.422-.329.111.051.163.275.188.321zM23.32 9.08c.195.028.446.043.687.11.082.023.203.193.189.266-.025.131-.12.304-.22.343a.73.73 0 0 1-.488.003c-.277-.102-.535-.136-.811-.002-.181.088-.352-.004-.4-.212-.065-.279.117-.414.322-.453.218-.042.444-.035.721-.053zm4.319 13.738c-.079.396-.139.743-.223 1.082-.017.067-.139.156-.19.141-.092-.026-.222-.11-.24-.196a1.513 1.513 0 0 1-.014-.573c.065-.347.129-.677.007-1.032-.058-.17-.042-.442.183-.441.121 0 .295.172.349.314.088.227.094.495.128.706zm-3.407-.102c-.045.093-.067.202-.126.249-.365.289-.73.58-1.114.833-.098.065-.27.025-.395-.018-.183-.063-.221-.34-.069-.452.42-.31.842-.617 1.274-.902.069-.046.208.004.297.055.061.035.087.148.133.235zM19.587 4.128c.059.04.171.075.186.138.145.614.284 1.23.399 1.852.032.173-.167.269-.299.165-.419-.324-.679-1.526-.435-2.028.025-.05.087-.075.15-.127zm5.173 1.744c-.126-.097-.262-.146-.28-.23-.02-.091.045-.246.116-.319.307-.316.628-.613.963-.891.113-.091.346-.156.433-.085.204.165.097.398-.045.569-.191.23-.381.472-.601.658-.169.14-.386.2-.584.297zM16.8 9.116l-.306.333c-.087-.109-.217-.199-.253-.329a25.824 25.824 0 0 1-.386-1.545c-.016-.071.035-.217.087-.242.085-.04.224-.056.289 0 .127.108.272.253.314.415.109.422.167.864.257 1.368zm-3.351 8.523c-.281.593-.494 1.199-1.017 1.523-.088.054-.283-.015-.377-.102-.16-.146 0-.268.078-.392.245-.389.472-.795.733-1.169.067-.096.238-.143.354-.13.079.008.143.163.229.271zm3.172.05c.146.098.253.127.273.191.033.105.05.271 0 .343-.08.116-.218.183-.336.261-.307.203-.61.417-.929.59a.373.373 0 0 1-.36-.034c-.178-.146-.116-.381.028-.484.438-.316.899-.593 1.325-.867zm15.875-2.683c-.113.293-.271.735-.459 1.16-.029.066-.211.102-.288.062-.072-.037-.15-.203-.135-.293.076-.472.159-.946.286-1.402.039-.139.214-.265.349-.312.05-.017.18.199.242.332.035.075.006.189.006.454zm-19.135-3.521c.497.513.438 1.21.493 1.854.01.12-.119.29-.222.377-.054.045-.274-.027-.279-.069a42.51 42.51 0 0 1-.187-1.958c-.004-.056.113-.124.195-.204zm11.611 15.892c.083.025.165.056.245.092.299.159.599.314.89.49.139.083.277.186.377.319.115.153-.016.448-.177.408-.542-.135-1.071-.323-1.476-.789-.06-.069-.058-.241-.039-.356.011-.065.116-.109.179-.164zm-6.59-15.704c.029.103.127.263.092.364a25.789 25.789 0 0 1-.607 1.568c-.026.063-.139.12-.205.109-.058-.008-.139-.102-.154-.174-.114-.575.244-1.604.644-1.863.041-.027.107-.004.229-.004zm15.484 8.73c-.062-.045-.192-.101-.26-.208-.027-.043.06-.237.135-.299.333-.279.673-.546 1.028-.784.096-.064.294-.069.365.003.065.067.074.319.016.411-.297.477-.672.84-1.284.877zm-2.057 4.103c-.257-.031-.369-.034-.476-.061-.045-.012-.113-.073-.114-.114a.48.48 0 0 1 .058-.257.419.419 0 0 1 .208-.149c.396-.137.793-.275 1.195-.386.087-.024.271.042.283.1a.91.91 0 0 1-.052.438c-.025.073-.123.133-.198.159-.344.109-.69.206-.905.27zm-11.927-3.293c-.028.139-.074.447-.163.738-.022.072-.195.141-.275.115s-.173-.177-.171-.272c.008-.538.032-1.076.079-1.611.01-.117.139-.22.213-.329.089.108.232.203.255.327.05.277.039.569.063 1.032zm18.562-16.82c0-1.139.239-2.002.718-2.59.484-.594 1.104-.892 1.859-.892s1.356.257 1.802.77c.452.513.677 1.333.677 2.459s-.239 1.977-.718 2.553c-.478.576-1.117.863-1.916.863-.69 0-1.256-.228-1.696-.685-.228-.238-.408-.566-.538-.985-.125-.425-.188-.923-.188-1.492zm2.553-3.388c-.549 0-1 .282-1.354.845-.348.563-.522 1.389-.522 2.478s.166 1.883.498 2.384c.331.501.772.751 1.321.751.555 0 1.006-.282 1.354-.845.354-.569.53-1.392.53-2.468 0-1.082-.168-1.877-.505-2.384-.332-.507-.772-.76-1.321-.76zm3.914 6.513h-.677V.948h.677V3.97h2.651V.948h.677v6.57h-.677V4.064h-2.651v3.454zm6.807 0h-.106l.709-6.57h.269l1.712 6.072L56.007.948h.269l.709 6.57h-.677l-.563-5.256-1.476 5.256h-.514l-1.492-5.19-.546 5.19zM61.504.949a.677.677 0 0 1 .155.46c0 .156-.03.316-.09.479l-1.46 3.407v2.224h-.677V5.501L57.801.949h.693l1.557 4.233 1.419-3.294c.06-.156.09-.319.09-.488s-.041-.3-.122-.394l.065-.056zM1.15 9.245c.422-.022.834-.033 1.236-.033.412 0 .843.05 1.293.149.46.099.91.287 1.351.562.45.265.829.612 1.135 1.042.316.419.57.976.762 1.67s.287 1.538.287 2.53-.144 1.885-.431 2.679c-.278.783-.661 1.384-1.15 1.803-.949.816-2.093 1.224-3.435 1.224-.469 0-.963-.022-1.48-.066h-.719V9.245h1.15zm.043 11.428c.201.022.455.033.762.033s.537-.006.69-.017c.153-.011.364-.055.632-.132.268-.088.517-.204.747-.347s.469-.353.719-.628c.259-.287.479-.623.661-1.009.412-.904.618-2.084.618-3.539 0-1.036-.11-1.93-.331-2.679-.22-.761-.474-1.323-.762-1.687a3.027 3.027 0 0 0-1.02-.86c-.402-.221-.723-.347-.963-.38s-.517-.05-.834-.05-.623.017-.92.05v11.246zm37.485.132h-.187V9.228h.489l5.978 10.701v-10.7h.187v11.577h-1.049l-5.418-9.592v9.592zM53.994 9.228h.187v6.615c0 1.731-.297 3.005-.891 3.82-.594.805-1.37 1.207-2.328 1.207-.604 0-1.116-.061-1.538-.182a3.171 3.171 0 0 1-1.193-.711c-.766-.684-1.15-2.062-1.15-4.135V9.227h1.193v6.599c0 2.007.263 3.346.79 4.019.268.331.546.557.834.678.297.121.651.182 1.063.182.92 0 1.653-.386 2.199-1.158.556-.783.834-2.023.834-3.721V9.227zm5.089 11.577H57.89V9.393h-2.486v-.165h6.18v.165h-2.501v11.412z"/></symbol></defs></svg>