<svg width="158" height="82" viewBox="0 0 158 82" fill="none" xmlns="http://www.w3.org/2000/svg">
<path d="M93.7677 40.7209C93.7677 41.3846 93.7499 42.0484 93.7677 42.7131C93.9647 49.4655 92.1351 55.5492 89.1974 61.2857C88.2125 63.2094 87.2711 65.1658 86.4229 67.1753C85.7229 68.8274 84.7504 69.9854 83.2376 70.6623C82.393 71.0391 81.6095 71.6926 80.9015 72.3655C77.6416 75.4665 73.9435 77.6874 69.9881 79.2517C67.3609 80.2902 64.6556 81.204 61.8013 81.1632C60.9504 81.152 60.0977 81.4532 59.2451 81.4563C58.3924 81.4593 57.5406 81.1407 56.696 81.1826C53.0156 81.3644 49.6058 80.0594 46.2209 78.6901C42.5263 77.1973 39.2639 74.8386 36.1948 72.0275C31.8641 68.0626 28.7782 63.0685 26.5094 57.3514C25.2868 54.2698 24.2913 51.0891 24.01 47.6694C23.963 47.1017 23.7997 46.5401 23.6551 45.9898C22.6259 42.1535 23.2177 38.3918 23.8547 34.5699C24.3418 31.6465 24.8431 28.7589 25.7916 25.9836C28.299 18.643 32.2811 12.6318 37.7963 7.91029C42.3941 3.97807 47.5403 1.56116 53.1354 0.522711C59.5556 -0.6689 65.8233 0.188815 71.9046 2.97332C74.939 4.36711 77.8022 6.13257 80.3026 8.46984C82.6352 10.6499 84.7389 13.2006 86.7264 15.8074C88.5275 18.1702 89.806 20.9843 90.948 23.8556C92.7314 28.3413 93.8937 32.9841 93.7757 37.9722C93.7499 38.8942 93.7686 39.8081 93.7677 40.7209ZM91.3029 31.6332C91.1254 30.0659 91.0145 28.2494 90.6818 26.487C89.7342 21.4152 87.1851 17.4564 83.7877 14.2237C81.8588 12.3857 79.756 10.7887 77.6833 9.16419C76.9815 8.61382 76.1661 8.10838 75.3463 7.93888C73.239 7.49164 71.1078 7.07402 68.9722 6.94842C65.2652 6.73093 61.9353 5.62918 59.1368 2.65985C57.0766 0.47574 54.8336 0.264374 52.6926 2.18708C50.2659 4.36405 47.5039 5.64245 44.6886 6.90758C42.6257 7.83472 40.6391 9.00285 38.6552 10.1567C36.9978 11.1226 36.0324 12.6287 36.0555 14.9099C36.0688 16.1893 35.5595 17.2584 34.5312 17.967C33.673 18.5616 32.8488 19.2188 32.0637 19.9346C29.8695 21.9237 28.1597 24.164 27.7906 27.6408C27.4987 30.3906 26.7765 33.1087 25.1404 35.3735C24.5937 36.1528 24.2547 37.0975 24.1644 38.0937C24.0135 40.1491 24.0756 42.2291 24.12 44.2968C24.1324 44.8502 24.3409 45.4435 24.5867 45.9305C25.1518 47.0813 25.7672 48.1985 26.4304 49.2777C28.0364 51.8498 29.433 54.4852 29.7559 57.7527C30.0682 60.9181 31.3956 63.4973 33.6413 65.466C36.894 68.3189 40.0296 71.3475 43.3311 74.1259C45.1056 75.6228 47.0052 76.9318 49.3459 77.2351C51.6865 77.5383 53.9809 78.2725 56.0793 79.6305C56.5192 79.9035 57.0017 80.0739 57.4989 80.1319C60.4597 80.4995 63.2005 79.6551 65.8002 78.0591C66.6156 77.5588 67.4549 77.1044 68.2987 76.6694C70.3306 75.6217 72.5833 74.9335 74.3534 73.4744C76.3223 71.8478 78.4278 71.1259 80.6876 70.6715C81.6636 70.4744 82.4622 70.0109 83.0974 69.1746C83.856 68.1821 84.5579 67.1324 85.3484 66.1736C86.1656 65.1842 86.7556 64.1314 86.8985 62.7213C87.1176 60.5597 87.9206 58.6512 88.9392 56.8174C90.664 53.7194 91.6445 50.2957 92.1546 46.6555C92.2886 45.7008 92.3649 44.8931 91.9541 44.0527C90.767 41.6277 91.2514 38.8738 90.8761 36.2925C90.6862 34.8966 91.1236 33.3701 91.3073 31.6302L91.3029 31.6332ZM77.0135 7.40587C76.5122 6.76769 76.3533 6.47872 76.1262 6.30003C75.7163 5.97328 75.2691 5.70678 74.8335 5.42394C71.1069 3.006 67.0255 1.83072 62.8554 0.986283C62.0178 0.815761 61.1367 0.892344 60.2823 0.930124C60.0596 0.939314 59.7943 1.18846 59.6532 1.4131C59.5885 1.51521 59.734 1.87259 59.8573 2.04311C60.7849 3.31639 61.9947 4.27684 63.3584 4.82251C65.7126 5.79855 68.1876 6.33393 70.689 6.40827C71.7484 6.44197 72.8052 6.67273 73.8601 6.83814C74.7598 6.98518 75.6586 7.16183 77.0135 7.40587ZM45.3532 77.0891C42.852 74.7344 40.6595 72.63 38.4281 70.5817C36.5808 68.8867 34.6936 67.2488 32.8055 65.6141C32.5934 65.4303 32.2589 65.4354 31.7949 65.2975C34.0698 69.6964 41.6666 76.3794 45.3532 77.0891ZM28.5013 22.1432C30.0097 20.8158 31.4053 19.419 32.9377 18.2631C35.0857 16.6508 35.9073 14.6464 35.3998 11.2053C33.8755 12.641 32.7886 14.3707 31.613 15.9422C30.3708 17.5994 29.4498 19.5732 28.4144 21.4285C28.3345 21.5786 28.4641 21.8747 28.5013 22.1432ZM79.3727 72.3451C77.9655 72.2338 76.5485 72.5197 75.6657 73.3948C73.9905 75.054 71.9977 75.8883 69.9703 76.7184C68.9056 77.1534 67.9021 77.7926 66.8995 78.4022C66.7611 78.4859 66.7354 78.9342 66.7638 79.1986C66.7735 79.2875 67.1488 79.4335 67.3032 79.3732C69.1239 78.6585 71.0049 78.0826 72.7289 77.1268C74.8432 75.9587 76.828 74.4792 78.851 73.1068C79.063 72.97 79.1748 72.6463 79.3727 72.3451ZM25.6142 49.3359C25.2096 50.7092 25.2894 51.4699 25.5441 52.2797C26.2494 54.5261 26.678 56.897 27.9494 58.8596C28.4206 59.5876 28.5173 61.2152 29.3868 60.864C30.1525 60.5576 29.2564 59.269 29.204 58.4001C29.0035 55.0805 27.4881 52.4053 25.6142 49.3359ZM39.263 7.99708L39.452 8.32485C40.5034 7.87557 41.5645 7.4508 42.6053 6.96987C44.8672 5.92495 47.1221 4.86064 49.3698 3.77692C49.8232 3.55637 50.2384 3.20307 50.6253 2.84569C50.7335 2.74358 50.714 2.40049 50.6803 2.18811C50.6626 2.09315 50.4487 1.99002 50.3254 1.98389C50.1145 1.98919 49.9054 2.02907 49.7043 2.10233C46.6486 3.10198 43.7667 4.58154 41.0091 6.37763C40.3641 6.79832 39.8406 7.45182 39.263 7.99708ZM92.9292 43.6484C93.1138 43.4013 93.2584 43.2982 93.2682 43.1818C93.5663 39.5651 93.2336 35.981 92.8032 32.4062C92.7819 32.2265 92.5655 31.9692 92.4182 31.9477C92.2558 31.9232 92.0029 32.0784 91.9044 32.2459C91.7426 32.5111 91.6418 32.8192 91.6116 33.1414C91.4495 36.0897 91.6183 39.0497 92.1138 41.9483C92.2114 42.5334 92.632 43.048 92.9292 43.6484ZM24.876 33.6683C26.0684 33.1445 26.2468 32.1959 26.3746 31.3402C26.686 29.2521 27.465 27.2426 27.2077 25.035C25.9611 27.6694 24.8547 30.3385 24.876 33.6683ZM53.7369 79.507C51.0636 78.1449 50.3387 78.0019 47.9591 78.3838C48.9679 78.8239 49.8756 79.5233 50.7886 79.5346C51.7406 79.5509 52.7707 80.8936 53.7369 79.507Z" fill="#2E2520"/>
<path d="M59.2495 52.4206C57.4217 52.3828 56.1663 51.5016 55.2364 49.7994C54.3704 48.2116 52.9295 47.3876 51.6102 46.4094C49.9465 45.177 48.5934 43.7862 48.2093 41.2876C47.9431 39.5937 48.2527 38.1223 48.8499 36.7846C49.3512 35.6665 50.2455 34.6281 51.1852 33.9634C52.2037 33.2425 53.0484 32.5624 53.5187 31.2309C54.051 29.6993 55.3926 29.6064 56.5806 29.3307C57.6995 29.0713 58.8369 28.9049 59.9398 28.5802C61.4482 28.137 62.8172 28.2739 63.9192 29.6268C64.771 30.6765 65.7656 31.429 66.8747 32.0662C68.0281 32.7278 68.4087 33.5008 68.0476 34.8834C67.8019 35.8218 68.0396 36.461 68.3431 37.2104C68.6749 38.0273 69.0165 38.8574 69.2446 39.7203C70.0041 42.5916 69.1301 45.0085 66.7913 46.2869C65.3415 47.0793 64.2315 48.1351 63.8704 49.9924C63.7258 50.7409 63.3203 51.1656 62.7471 51.3597C61.5901 51.7497 60.4163 52.0714 59.2495 52.4206ZM66.9226 40.383C66.9598 35.3245 63.6308 31.2799 59.3019 31.2738C55.4174 31.2738 51.5099 34.3013 51.3582 40.1032C51.2366 44.7471 54.5949 49.0724 58.9727 49.0888C64.3043 49.1194 66.8188 44.8553 66.9226 40.383ZM51.3156 45.2188C51.3156 44.5704 51.3697 44.2386 51.3076 43.9394C50.7335 41.1917 50.36 38.4705 51.6625 35.8238C51.7566 35.6339 51.5401 35.2418 51.4673 34.9436C51.2118 35.0386 50.903 35.058 50.7096 35.2407C48.558 37.2748 47.5979 42.1586 51.3156 45.2188ZM59.3063 30.0046C60.2069 30.3844 60.7206 30.654 61.2583 30.8215C63.2413 31.426 64.9333 32.5124 66.1107 34.5158C66.3432 34.9099 66.6431 35.496 67.0867 35.0467C67.3227 34.8068 67.3999 34.0736 67.2642 33.7071C67.0805 33.22 66.6635 32.6125 66.2625 32.5165C65.1729 32.2541 64.5767 31.3453 63.8668 30.5529C62.6726 29.2327 61.339 28.8181 59.3063 30.0046ZM59.1839 49.9158L59.1572 49.7249C58.5858 49.7249 58.0091 49.6687 57.4466 49.7484C57.1573 49.7892 56.8947 50.0721 56.6205 50.2456C56.8699 50.4999 57.0872 50.9002 57.3747 50.9829C58.9115 51.4291 60.4606 51.5251 61.9761 50.842C62.2352 50.7245 62.5235 50.5714 62.6859 50.3314C62.8296 50.1272 62.8767 49.7647 62.8474 49.49C62.8358 49.3879 62.4774 49.2337 62.2999 49.2664C61.2592 49.4543 60.2228 49.6912 59.1883 49.9128L59.1839 49.9158ZM67.0433 44.7277C68.108 44.5 68.5835 43.8087 68.6457 42.7458C68.6916 41.8498 68.6804 40.9512 68.6119 40.0572C68.5951 39.8214 68.3094 39.611 68.147 39.3884C67.9101 39.6467 67.4292 39.9939 67.4727 40.1491C67.9048 41.7002 67.0015 43.0888 67.0433 44.7246V44.7277Z" fill="#2E2520"/>
<path d="M76.7828 51.7313C76.7215 51.7671 76.4749 52.005 76.2078 52.0377C75.9647 52.0703 75.6098 51.9764 75.459 51.7804C74.7021 50.797 73.9675 49.7862 73.2905 48.7293C73.113 48.4526 73.0403 47.7082 73.1414 47.6439C73.4742 47.4326 74.1245 47.212 74.2691 47.3948C75.1253 48.4822 75.8786 49.6779 76.6523 50.8501C76.7278 50.9676 76.7047 51.1687 76.7828 51.7313Z" fill="#2E2520"/>
<path d="M40.5353 60.2482C40.931 60.285 41.7127 60.3126 42.4749 60.4627C42.6647 60.5005 42.9185 60.9283 42.9185 61.1836C42.9185 61.4388 42.6994 61.8799 42.5095 61.9341C41.0277 62.3578 39.5531 62.462 38.2417 61.3214C38.1677 61.242 38.1103 61.1441 38.0742 61.0352C38.0381 60.9264 38.024 60.8095 38.0332 60.6934C38.0616 60.5229 38.2914 60.285 38.4458 60.2728C39.0145 60.2176 39.585 60.2482 40.5353 60.2482Z" fill="#2E2520"/>
<path d="M86.9677 24.3406L87.5284 24.6939C87.3696 25.0217 87.272 25.5486 87.0405 25.6435C85.9735 26.0951 84.8788 26.4548 83.7655 26.7198C83.4452 26.7923 82.9803 26.4298 82.6849 26.1306C82.3441 25.7844 82.5473 25.0329 82.9768 24.9574C84.2393 24.7337 85.5108 24.5622 86.9677 24.3406Z" fill="#2E2520"/>
<path d="M49.2509 67.5592C49.8436 67.8778 50.3396 67.9677 50.5818 68.3077C51.2451 69.2553 51.8519 70.2535 52.398 71.2954C52.6642 71.7916 52.4211 72.3287 51.973 72.4717C51.7273 72.5503 51.2819 72.3196 51.1009 72.0633C50.3776 71.0605 49.7074 70.0086 49.0939 68.9132C48.9519 68.6528 49.1719 68.13 49.2509 67.5592Z" fill="#2E2520"/>
<path d="M72.5061 28.0462C72.5434 27.7562 72.5061 27.4243 72.6242 27.2967C72.7839 27.1292 73.1263 26.9903 73.2905 27.0812C73.515 27.2048 73.6605 27.5438 73.8149 27.8103C74.2443 28.5516 74.6693 29.297 75.0783 30.0567C75.2611 30.3967 75.5069 30.7592 75.522 31.1258C75.5397 31.4648 75.3605 31.9048 75.1387 32.1377C75.0153 32.2684 74.5069 32.1836 74.3818 32.0029C73.562 30.8031 72.5789 29.6799 72.5061 28.0462Z" fill="#2E2520"/>
<path d="M75.057 15.2989C74.8796 16.5242 74.8086 17.4258 74.6019 18.2897C74.4723 18.7563 74.2253 19.1682 73.8921 19.4731C73.6569 19.6916 73.247 19.66 72.9161 19.7396C72.8894 19.3832 72.7927 19.0116 72.8486 18.6736C73.0217 17.63 73.2532 16.5987 73.4608 15.5634C73.4768 15.4827 73.4724 15.3969 73.4928 15.3183C73.656 14.6934 74.0092 14.2176 74.5744 14.4759C74.8592 14.6066 74.9923 15.1794 75.057 15.2989Z" fill="#2E2520"/>
<path d="M59.7588 23.2675C60.2574 23.3389 60.9025 23.3777 61.5183 23.5493C61.7285 23.6075 62.0391 24.0435 62.0027 24.2314C61.9388 24.5673 61.6957 25.0094 61.4393 25.1095C61.0328 25.2556 60.5977 25.2581 60.19 25.1167C59.4802 24.8563 58.8192 24.7695 58.1112 25.1105C57.6462 25.3352 57.2097 25.0993 57.0855 24.5663C56.9196 23.8515 57.3863 23.5054 57.9106 23.4043C58.4696 23.2971 59.0472 23.3144 59.7588 23.2675Z" fill="#2E2520"/>
<path d="M70.8257 58.4705C70.6243 59.4845 70.4708 60.3738 70.2534 61.2428C70.2108 61.4133 69.8985 61.6431 69.7672 61.6042C69.5311 61.5379 69.1993 61.3235 69.1514 61.1009C69.0453 60.6201 69.0331 60.1183 69.1159 59.6315C69.2827 58.7411 69.4469 57.8957 69.1337 56.9859C68.9846 56.5499 69.0272 55.8545 69.6021 55.8565C69.9118 55.8565 70.3572 56.2976 70.4965 56.6622C70.7227 57.2452 70.7378 57.9314 70.8257 58.4705Z" fill="#2E2520"/>
<path d="M62.095 58.2101C61.9796 58.4481 61.9237 58.7289 61.772 58.8493C60.8377 59.5907 59.9017 60.335 58.9186 60.9834C58.6675 61.1488 58.2265 61.0467 57.9062 60.9375C57.4368 60.7772 57.3392 60.0665 57.7287 59.7785C58.8041 58.9851 59.8857 58.1979 60.9939 57.4668C61.1713 57.3494 61.5262 57.476 61.7552 57.6067C61.9104 57.6965 61.977 57.9865 62.095 58.2101Z" fill="#2E2520"/>
<path d="M50.1914 10.5774C50.3431 10.6795 50.6288 10.7693 50.667 10.9307C51.0379 12.5042 51.3954 14.0828 51.69 15.6757C51.7716 16.1178 51.2632 16.3639 50.9225 16.0994C49.8498 15.2683 49.1817 12.1897 49.8072 10.9021C49.872 10.7744 50.0299 10.7101 50.1914 10.5774Z" fill="#2E2520"/>
<path d="M63.4472 15.0467C63.1242 14.7986 62.7755 14.6719 62.7285 14.4575C62.6779 14.2247 62.8447 13.8275 63.0257 13.6406C63.8129 12.8308 64.6362 12.0687 65.4923 11.3575C65.7807 11.1237 66.3796 10.9582 66.6014 11.141C67.1249 11.5648 66.8498 12.1621 66.4852 12.5991C65.9954 13.1883 65.5092 13.8091 64.9449 14.2849C64.5119 14.6433 63.9565 14.7975 63.4472 15.0467Z" fill="#2E2520"/>
<path d="M43.0498 23.3604L42.2655 24.214C42.0419 23.9353 41.7101 23.7035 41.616 23.3706C41.2398 22.0677 40.9248 20.7413 40.6258 19.4118C40.585 19.2291 40.7145 18.8553 40.8476 18.792C41.065 18.6899 41.4226 18.6491 41.5876 18.792C41.9132 19.0687 42.285 19.4394 42.3915 19.855C42.671 20.9373 42.8182 22.0687 43.0498 23.3604Z" fill="#2E2520"/>
<path d="M34.4629 45.2005C33.7433 46.7188 33.1967 48.2739 31.857 49.102C31.6316 49.2409 31.133 49.0632 30.8916 48.8417C30.4817 48.4669 30.8916 48.1555 31.0913 47.8359C31.7203 46.8393 32.3015 45.7998 32.9696 44.841C33.1417 44.595 33.5791 44.4734 33.8764 44.5071C34.0787 44.5286 34.2437 44.9248 34.4629 45.2005Z" fill="#2E2520"/>
<path d="M42.5911 45.3291C42.9664 45.5793 43.2388 45.6538 43.2894 45.8182C43.3728 46.0878 43.4163 46.5115 43.2894 46.6984C43.0835 46.9965 42.7313 47.1681 42.4278 47.3682C41.6408 47.888 40.8645 48.4363 40.0464 48.8794C39.7971 49.0142 39.3455 48.9734 39.1237 48.7916C38.6667 48.4169 38.8273 47.8165 39.1946 47.552C40.3179 46.7423 41.4989 46.0337 42.5911 45.3291Z" fill="#2E2520"/>
<path d="M83.2704 38.4531C82.9812 39.2036 82.5748 40.336 82.093 41.4245C82.0185 41.593 81.5518 41.6848 81.354 41.5838C81.1703 41.4888 80.9698 41.063 81.007 40.8322C81.2005 39.6222 81.4143 38.4082 81.7399 37.24C81.8393 36.8837 82.2882 36.56 82.6334 36.4405C82.7612 36.3966 83.0957 36.9511 83.2545 37.2901C83.345 37.481 83.2704 37.7751 83.2704 38.4531Z" fill="#2E2520"/>
<path d="M34.2375 29.4308C35.5107 30.7459 35.359 32.5318 35.5001 34.1809C35.5267 34.4872 35.1957 34.9252 34.9313 35.1468C34.7929 35.2632 34.2304 35.0764 34.2171 34.9691C34.0166 33.3037 33.8622 31.6292 33.7388 29.9525C33.7291 29.8096 34.0281 29.635 34.2375 29.4308Z" fill="#2E2520"/>
<path d="M63.9902 70.1548C64.2036 70.2199 64.4137 70.299 64.6192 70.3917C65.3841 70.8002 66.1533 71.1974 66.8995 71.6467C67.2544 71.859 67.6093 72.1245 67.8649 72.4635C68.1585 72.8566 67.8232 73.6112 67.4124 73.5081C66.0247 73.163 64.6689 72.681 63.6308 71.4863C63.4773 71.3097 63.4809 70.8676 63.5306 70.5745C63.5599 70.4091 63.8278 70.2947 63.9902 70.1548Z" fill="#2E2520"/>
<path d="M47.1028 29.9117C47.1765 30.1761 47.4285 30.5866 47.3397 30.8439C46.8739 32.2071 46.3345 33.5386 45.7853 34.8609C45.7178 35.0233 45.4304 35.1672 45.26 35.1407C45.1109 35.1192 44.9051 34.8783 44.8661 34.6955C44.575 33.2221 45.4925 30.5846 46.5155 29.9209C46.6211 29.8525 46.7896 29.9117 47.1028 29.9117Z" fill="#2E2520"/>
<path d="M86.7822 52.2827C86.6225 52.1663 86.2898 52.0244 86.1168 51.7497C86.0476 51.6405 86.2712 51.1422 86.4637 50.9829C87.3173 50.2681 88.1886 49.585 89.0971 48.9744C89.342 48.81 89.8513 48.7977 90.0314 48.9826C90.1973 49.1541 90.2222 49.7994 90.0722 50.0363C89.311 51.2576 88.3509 52.1888 86.7822 52.2827Z" fill="#2E2520"/>
<path d="M81.5101 62.7979C80.8518 62.7193 80.5652 62.7111 80.291 62.6407C80.1748 62.611 80.0018 62.4528 80 62.3496C79.9877 62.1173 80.0402 61.8866 80.1499 61.691C80.2912 61.5064 80.4762 61.3733 80.6823 61.3081C81.6973 60.9569 82.7132 60.6046 83.7434 60.3197C83.967 60.2585 84.4381 60.428 84.4674 60.575C84.5348 60.9242 84.4541 61.3459 84.3352 61.6982C84.2722 61.884 84.0211 62.0392 83.8285 62.1066C82.9466 62.3854 82.0611 62.6345 81.5101 62.7979Z" fill="#2E2520"/>
<path d="M50.9465 54.3586C50.8737 54.715 50.7557 55.5043 50.5277 56.2486C50.4709 56.4335 50.0273 56.6111 49.8232 56.5437C49.6191 56.4763 49.3796 56.0893 49.3858 55.8473C49.4071 54.4699 49.4665 53.0904 49.5881 51.7191C49.6138 51.4199 49.943 51.1565 50.1329 50.8767C50.36 51.1534 50.7282 51.3974 50.7859 51.715C50.9145 52.4257 50.887 53.1731 50.9465 54.3586Z" fill="#2E2520"/>
<path d="M98.5134 11.2573C98.5134 8.33923 99.1264 6.12666 100.352 4.61955C101.592 3.0964 103.181 2.33482 105.117 2.33482C107.054 2.33482 108.593 2.99218 109.735 4.3069C110.892 5.62162 111.47 7.72196 111.47 10.6079C111.47 13.4939 110.857 15.6744 109.631 17.1494C108.405 18.6245 106.768 19.362 104.72 19.362C102.951 19.362 101.502 18.7768 100.373 17.6064C99.7881 16.9971 99.3284 16.1554 98.994 15.0812C98.6736 13.9909 98.5134 12.7163 98.5134 11.2573ZM105.054 2.57532C103.647 2.57532 102.491 3.29681 101.585 4.73979C100.694 6.18278 100.248 8.29915 100.248 11.0889C100.248 13.8787 100.673 15.9149 101.523 17.1975C102.372 18.4802 103.501 19.1215 104.908 19.1215C106.329 19.1215 107.485 18.4 108.377 16.957C109.283 15.498 109.735 13.3897 109.735 10.632C109.735 7.85824 109.304 5.82203 108.44 4.52335C107.59 3.22466 106.461 2.57532 105.054 2.57532Z" fill="#2E2520"/>
<path d="M115.084 19.2658H113.35V2.43102H115.084V10.175H121.876V2.43102H123.611V19.2658H121.876V10.4155H115.084V19.2658Z" fill="#2E2520"/>
<path d="M132.527 19.2658H132.255L134.073 2.43102H134.763L139.151 17.9912L143.519 2.43102H144.209L146.027 19.2658H144.292L142.85 5.79798L139.068 19.2658H137.751L133.927 5.96633L132.527 19.2658Z" fill="#2E2520"/>
<path d="M157.603 2.43102C157.868 2.73565 158 3.12846 158 3.60946C158 4.01029 157.923 4.41913 157.77 4.83599L154.029 13.566V19.2658H152.295V14.0951L148.115 2.43102H149.892L153.883 13.2774L157.519 4.83599C157.673 4.43516 157.749 4.0183 157.749 3.58541C157.749 3.15251 157.645 2.81582 157.436 2.57532L157.603 2.43102Z" fill="#2E2520"/>
<path d="M2.94608 23.6892C4.02631 23.6327 5.08198 23.6044 6.11311 23.6044C7.16879 23.6044 8.27357 23.7316 9.42745 23.9858C10.6059 24.2401 11.7598 24.7204 12.8891 25.4268C14.043 26.1049 15.0127 26.9948 15.7983 28.0967C16.6085 29.1704 17.2591 30.5972 17.7501 32.3771C18.2411 34.1571 18.4866 36.3185 18.4866 38.8613C18.4866 41.4041 18.1184 43.6927 17.3819 45.7269C16.6699 47.7329 15.6879 49.2728 14.4358 50.3464C12.0053 52.4371 9.07146 53.4825 5.63437 53.4825C4.43139 53.4825 3.16703 53.426 1.8413 53.313H0V23.6892H2.94608ZM3.05655 52.974C3.57212 53.0305 4.22271 53.0587 5.00833 53.0587C5.79395 53.0587 6.38317 53.0446 6.77598 53.0163C7.16879 52.9881 7.7089 52.8751 8.39632 52.6773C9.08374 52.4513 9.72205 52.1546 10.3113 51.7873C10.9005 51.42 11.5142 50.8832 12.1526 50.1769C12.8154 49.4423 13.3801 48.5805 13.8466 47.5917C14.9022 45.2749 15.4301 42.2517 15.4301 38.5223C15.4301 35.8665 15.1477 33.5779 14.5831 31.6567C14.0184 29.7072 13.3678 28.2662 12.6313 27.3339C11.9193 26.4015 11.0478 25.6669 10.0167 25.1301C8.98553 24.565 8.16309 24.2401 7.54932 24.1554C6.93556 24.0706 6.22359 24.0282 5.41342 24.0282C4.60324 24.0282 3.81762 24.0706 3.05655 24.1554V52.974Z" fill="#2E2520"/>
<path d="M99.1112 53.313H98.6324V23.6468H99.8845L115.204 51.0668V23.6468H115.683V53.313H112.995L99.1112 28.7324V53.313Z" fill="#2E2520"/>
<path d="M138.359 23.6468H138.838V40.5989C138.838 45.0347 138.077 48.298 136.555 50.3888C135.033 52.4513 133.044 53.4825 130.589 53.4825C129.042 53.4825 127.729 53.3271 126.649 53.0163C125.568 52.6773 124.55 52.0698 123.592 51.194C121.628 49.4423 120.646 45.9106 120.646 40.5989V23.6468H123.703V40.5565C123.703 45.6987 124.378 49.1315 125.728 50.8549C126.415 51.7026 127.127 52.2818 127.864 52.5925C128.625 52.9033 129.533 53.0587 130.589 53.0587C132.946 53.0587 134.824 52.0699 136.223 50.0921C137.647 48.0861 138.359 44.9076 138.359 40.5565V23.6468Z" fill="#2E2520"/>
<path d="M151.401 53.313H148.344V24.0706H141.973V23.6468H157.809V24.0706H151.401V53.313Z" fill="#2E2520"/>
</svg>
