<svg width="16" height="16" viewBox="0 0 16 16" fill="none" xmlns="http://www.w3.org/2000/svg">
<path d="M16 3.49954C15.405 3.75385 14.771 3.92241 14.11 4.00426C14.79 3.60867 15.309 2.98703 15.553 2.23774C14.919 2.60605 14.219 2.86621 13.473 3.01138C12.871 2.38682 12.013 2 11.077 2C9.261 2 7.799 3.43621 7.799 5.19687C7.799 5.45021 7.821 5.69379 7.875 5.92569C5.148 5.7961 2.735 4.52262 1.114 2.58267C0.831 3.06108 0.665 3.60867 0.665 4.19815C0.665 5.30503 1.25 6.2862 2.122 6.85426C1.595 6.84451 1.078 6.69544 0.64 6.46062C0.64 6.47036 0.64 6.48303 0.64 6.49569C0.64 8.04882 1.777 9.33887 3.268 9.63605C3.001 9.70718 2.71 9.74128 2.408 9.74128C2.198 9.74128 1.986 9.72959 1.787 9.68672C2.212 10.9524 3.418 11.8829 4.852 11.9131C3.736 12.7637 2.319 13.2763 0.785 13.2763C0.516 13.2763 0.258 13.2646 0 13.2324C1.453 14.1454 3.175 14.6667 5.032 14.6667C11.068 14.6667 14.368 9.79487 14.368 5.572C14.368 5.43072 14.363 5.29431 14.356 5.15887C15.007 4.70872 15.554 4.14651 16 3.49954Z" fill="#2E2520"/>
</svg>
