<svg width="16" height="16" viewBox="0 0 16 16" fill="none" xmlns="http://www.w3.org/2000/svg">
<path d="M12.3247 0.00332907L10.2498 0C7.91881 0 6.41241 1.54552 6.41241 3.93762V5.75313H4.32625C4.14598 5.75313 4 5.89927 4 6.07954V8.71001C4 8.89028 4.14615 9.03625 4.32625 9.03625H6.41241V15.6738C6.41241 15.854 6.55839 16 6.73866 16H9.4605C9.64077 16 9.78675 15.8539 9.78675 15.6738V9.03625H12.226C12.4062 9.03625 12.5522 8.89028 12.5522 8.71001L12.5532 6.07954C12.5532 5.99299 12.5188 5.91009 12.4577 5.84884C12.3966 5.78758 12.3133 5.75313 12.2268 5.75313H9.78675V4.2141C9.78675 3.47438 9.96303 3.09886 10.9266 3.09886L12.3243 3.09836C12.5044 3.09836 12.6504 2.95222 12.6504 2.77211V0.329578C12.6504 0.149642 12.5046 0.00366197 12.3247 0.00332907Z" fill="#2E2520"/>
</svg>
