<svg width="96" height="45" viewBox="0 0 96 45" fill="none" xmlns="http://www.w3.org/2000/svg">
<path d="M56.9728 22.2343C56.9728 22.5934 56.962 22.9525 56.9728 23.3122C57.0925 26.966 55.9808 30.2578 54.1959 33.3619C53.5975 34.4028 53.0255 35.4614 52.5101 36.5487C52.0848 37.4427 51.4939 38.0693 50.5748 38.4356C50.0615 38.6394 49.5855 38.993 49.1553 39.3572C47.1747 41.0351 44.9277 42.2368 42.5244 43.0833C40.9281 43.6452 39.2844 44.1397 37.5502 44.1176C37.0332 44.1115 36.5151 44.2745 35.997 44.2762C35.4789 44.2778 34.9614 44.1054 34.4482 44.1281C32.212 44.2264 30.1402 43.5203 28.0836 42.7794C25.8388 41.9716 23.8565 40.6953 21.9918 39.1743C19.3604 37.0289 17.4855 34.3265 16.107 31.233C15.3641 29.5655 14.7592 27.8445 14.5883 25.9941C14.5598 25.6869 14.4606 25.383 14.3727 25.0852C13.7474 23.0095 14.1069 20.974 14.494 18.906C14.79 17.3241 15.0946 15.7616 15.6709 14.2599C17.1943 10.2879 19.6138 7.03526 22.9649 4.48045C25.7585 2.35273 28.8852 1.04494 32.2848 0.483034C36.1857 -0.161746 39.9939 0.302363 43.6889 1.80906C45.5326 2.56324 47.2722 3.51853 48.7914 4.78322C50.2087 5.96284 51.4869 7.34301 52.6945 8.75357C53.7889 10.0321 54.5657 11.5548 55.2595 13.1085C56.3431 15.5356 57.0493 18.0479 56.9776 20.7469C56.962 21.2458 56.9733 21.7403 56.9728 22.2343ZM55.4752 17.3169C55.3673 16.4688 55.3 15.4859 55.0978 14.5323C54.522 11.788 52.9732 9.64588 50.909 7.89663C49.737 6.90211 48.4593 6.03798 47.2 5.15893C46.7736 4.86113 46.2781 4.58764 45.78 4.49592C44.4997 4.25392 43.2048 4.02794 41.9071 3.95998C39.6548 3.8423 37.6316 3.24614 35.9312 1.63944C34.6795 0.457618 33.3166 0.343248 32.0158 1.38363C30.5413 2.56158 28.8631 3.25332 27.1526 3.93788C25.8992 4.43956 24.6921 5.07164 23.4867 5.69597C22.4797 6.21865 21.8931 7.0336 21.9071 8.26791C21.9152 8.96021 21.6058 9.53869 20.981 9.92213C20.4596 10.2439 19.9588 10.5995 19.4817 10.9868C18.1486 12.0631 17.1097 13.2753 16.8854 15.1566C16.7081 16.6445 16.2693 18.1153 15.2752 19.3408C14.943 19.7625 14.7371 20.2737 14.6822 20.8127C14.5905 21.9249 14.6282 23.0503 14.6552 24.1692C14.6627 24.4686 14.7894 24.7896 14.9388 25.0532C15.2821 25.6759 15.656 26.2804 16.059 26.8643C17.0348 28.2561 17.8833 29.6821 18.0795 31.4502C18.2693 33.1629 19.0758 34.5586 20.4403 35.6238C22.4166 37.1676 24.3218 38.8063 26.3277 40.3097C27.4059 41.1197 28.5602 41.828 29.9823 41.9921C31.4044 42.1562 32.7985 42.5534 34.0735 43.2883C34.3408 43.436 34.6339 43.5282 34.9361 43.5596C36.735 43.7585 38.4003 43.3015 39.9799 42.438C40.4753 42.1672 40.9853 41.9214 41.498 41.686C42.7325 41.1191 44.1013 40.7467 45.1768 39.9572C46.373 39.077 47.6523 38.6864 49.0254 38.4405C49.6184 38.3339 50.1036 38.0831 50.4896 37.6306C50.9505 37.0935 51.3769 36.5255 51.8573 36.0067C52.3538 35.4713 52.7123 34.9017 52.7991 34.1387C52.9322 32.969 53.4201 31.9364 54.039 30.9441C55.087 29.2677 55.6827 27.4152 55.9927 25.4455C56.0741 24.9289 56.1205 24.4918 55.8709 24.0371C55.1496 22.7249 55.4439 21.2348 55.2159 19.838C55.1005 19.0828 55.3663 18.2568 55.4779 17.3153L55.4752 17.3169ZM46.793 4.20751C46.4884 3.86219 46.3919 3.70583 46.2539 3.60914C46.0048 3.43234 45.7331 3.28813 45.4684 3.13509C43.2042 1.82674 40.7244 1.1908 38.1906 0.733873C37.6817 0.641603 37.1464 0.683042 36.6272 0.703485C36.4919 0.708458 36.3307 0.84327 36.245 0.964822C36.2056 1.02007 36.2941 1.21345 36.369 1.30572C36.9326 1.99469 37.6677 2.5144 38.4963 2.80966C39.9267 3.33779 41.4304 3.62748 42.9503 3.66771C43.594 3.68594 44.236 3.81081 44.877 3.90031C45.4237 3.97987 45.9698 4.07546 46.793 4.20751ZM27.5564 41.9131C26.0366 40.639 24.7045 39.5003 23.3487 38.3919C22.2263 37.4747 21.0796 36.5885 19.9324 35.7039C19.8036 35.6045 19.6003 35.6073 19.3184 35.5327C20.7006 37.9129 25.3164 41.5291 27.5564 41.9131ZM17.3173 12.1819C18.2337 11.4636 19.0817 10.7078 20.0128 10.0824C21.3179 9.20994 21.8171 8.12537 21.5088 6.2634C20.5826 7.04023 19.9222 7.97619 19.2079 8.8265C18.4531 9.72323 17.8936 10.7912 17.2644 11.7951C17.2159 11.8764 17.2946 12.0366 17.3173 12.1819ZM48.2264 39.3461C47.3714 39.2859 46.5105 39.4406 45.9741 39.9141C44.9563 40.8119 43.7455 41.2633 42.5136 41.7125C41.8667 41.9479 41.257 42.2937 40.6478 42.6236C40.5637 42.6689 40.5481 42.9115 40.5653 43.0546C40.5713 43.1026 40.7993 43.1816 40.8931 43.149C41.9993 42.7623 43.1422 42.4507 44.1897 41.9335C45.4744 41.3014 46.6803 40.5008 47.9095 39.7583C48.0383 39.6842 48.1062 39.5091 48.2264 39.3461ZM15.563 26.8958C15.3172 27.6389 15.3657 28.0506 15.5204 28.4887C15.949 29.7042 16.2094 30.9872 16.9819 32.0491C17.2682 32.443 17.327 33.3237 17.8553 33.1337C18.3205 32.9679 17.776 32.2706 17.7442 31.8005C17.6224 30.0042 16.7016 28.5567 15.563 26.8958ZM23.856 4.52741L23.9708 4.70477C24.6096 4.46166 25.2544 4.23182 25.8868 3.97159C27.2611 3.40619 28.6311 2.83028 29.9969 2.24389C30.2723 2.12454 30.5246 1.93338 30.7597 1.74C30.8254 1.68475 30.8136 1.4991 30.7931 1.38418C30.7823 1.3328 30.6524 1.27699 30.5775 1.27368C30.4493 1.27654 30.3223 1.29812 30.2001 1.33777C28.3434 1.87868 26.5924 2.67926 24.9169 3.65113C24.525 3.87876 24.2069 4.23237 23.856 4.52741ZM56.4633 23.8183C56.5755 23.6846 56.6633 23.6288 56.6693 23.5658C56.8504 21.6088 56.6482 19.6695 56.3868 17.7352C56.3738 17.6379 56.2423 17.4987 56.1528 17.4871C56.0542 17.4739 55.9005 17.5578 55.8407 17.6484C55.7423 17.7919 55.6811 17.9587 55.6628 18.133C55.5643 19.7283 55.6668 21.33 55.9679 22.8984C56.0272 23.215 56.2827 23.4935 56.4633 23.8183ZM15.1145 18.4181C15.8391 18.1347 15.9474 17.6214 16.025 17.1584C16.2143 16.0285 16.6876 14.9411 16.5313 13.7466C15.7738 15.1721 15.1021 16.6164 15.115 18.4181H15.1145ZM32.6503 43.2214C31.026 42.4844 30.5855 42.407 29.1397 42.6137C29.7526 42.8518 30.3041 43.2303 30.8589 43.2363C31.4373 43.2452 32.0638 43.9717 32.6508 43.2214H32.6503Z" fill="#2E2520"/>
<path d="M35.9997 28.565C34.8892 28.5445 34.1263 28.0677 33.5614 27.1467C33.0352 26.2875 32.1597 25.8416 31.3581 25.3123C30.3473 24.6454 29.5251 23.8929 29.2917 22.5409C29.13 21.6243 29.3181 20.8281 29.6809 20.1044C29.9855 19.4994 30.5289 18.9375 31.0998 18.5778C31.7187 18.1877 32.2319 17.8197 32.5177 17.0992C32.8411 16.2705 33.6562 16.2202 34.3781 16.071C35.0579 15.9307 35.749 15.8406 36.4191 15.6649C37.3356 15.4251 38.1674 15.4992 38.837 16.2312C39.3545 16.7992 39.9588 17.2064 40.6327 17.5512C41.3335 17.9092 41.5648 18.3275 41.3454 19.0756C41.1961 19.5833 41.3405 19.9292 41.5249 20.3347C41.7265 20.7768 41.9341 21.226 42.0726 21.6928C42.5341 23.2465 42.0031 24.5543 40.582 25.246C39.7011 25.6748 39.0267 26.2461 38.8073 27.2511C38.7195 27.6561 38.4731 27.8859 38.1248 27.9909C37.4218 28.202 36.7086 28.376 35.9997 28.565ZM40.6618 22.0514C40.6845 19.3143 38.6618 17.1258 36.0315 17.1224C33.6713 17.1224 31.2971 18.7606 31.205 21.9C31.1311 24.4128 33.1716 26.7533 35.8315 26.7621C39.0709 26.7787 40.5987 24.4714 40.6618 22.0514ZM31.1791 24.6681C31.1791 24.3172 31.212 24.1377 31.1742 23.9758C30.8254 22.489 30.5985 21.0165 31.3899 19.5844C31.447 19.4817 31.3155 19.2695 31.2713 19.1082C31.116 19.1596 30.9284 19.1701 30.8109 19.269C29.5036 20.3696 28.9203 23.0122 31.1791 24.6681ZM36.0342 16.4357C36.5814 16.6412 36.8935 16.7871 37.2202 16.8777C38.4251 17.2048 39.4532 17.7926 40.1685 18.8767C40.3098 19.0899 40.492 19.4071 40.7616 19.164C40.905 19.0341 40.9519 18.6374 40.8694 18.4391C40.7578 18.1755 40.5044 17.8468 40.2607 17.7949C39.5987 17.6529 39.2364 17.1611 38.8052 16.7324C38.0795 16.018 37.2693 15.7937 36.0342 16.4357ZM35.9598 27.2096L35.9436 27.1063C35.5965 27.1063 35.246 27.0759 34.9043 27.119C34.7285 27.1411 34.5689 27.2942 34.4024 27.3881C34.5538 27.5257 34.6859 27.7423 34.8606 27.787C35.7943 28.0285 36.7356 28.0804 37.6563 27.7108C37.8138 27.6472 37.989 27.5644 38.0876 27.4345C38.175 27.324 38.2035 27.1279 38.1857 26.9792C38.1787 26.924 37.9609 26.8406 37.8531 26.8582C37.2208 26.9599 36.5911 27.0881 35.9625 27.208L35.9598 27.2096ZM40.7351 24.4023C41.3821 24.2791 41.671 23.9051 41.7088 23.3299C41.7367 22.8451 41.7299 22.3589 41.6883 21.8752C41.678 21.7475 41.5044 21.6337 41.4058 21.5133C41.2618 21.653 40.9696 21.8409 40.9961 21.9249C41.2586 22.7641 40.7098 23.5156 40.7351 24.4007V24.4023Z" fill="#2E2520"/>
<path d="M46.6528 28.192C46.6156 28.2113 46.4658 28.3401 46.3035 28.3578C46.1558 28.3754 45.9401 28.3246 45.8485 28.2185C45.3886 27.6865 44.9423 27.1395 44.5309 26.5676C44.4231 26.4179 44.3789 26.0151 44.4404 25.9803C44.6425 25.8659 45.0377 25.7466 45.1256 25.8455C45.6458 26.4339 46.1035 27.0809 46.5736 27.7152C46.6194 27.7787 46.6054 27.8876 46.6528 28.192Z" fill="#2E2520"/>
<path d="M24.629 32.8005C24.8695 32.8204 25.3444 32.8353 25.8075 32.9165C25.9229 32.937 26.0771 33.1685 26.0771 33.3066C26.0771 33.4447 25.9439 33.6834 25.8285 33.7127C24.9282 33.942 24.0323 33.9983 23.2355 33.3812C23.1905 33.3382 23.1557 33.2852 23.1337 33.2263C23.1117 33.1675 23.1032 33.1042 23.1088 33.0414C23.126 32.9491 23.2657 32.8204 23.3595 32.8138C23.705 32.7839 24.0517 32.8005 24.629 32.8005Z" fill="#2E2520"/>
<path d="M52.8411 13.3709L53.1818 13.5621C53.0853 13.7394 53.026 14.0245 52.8853 14.0759C52.2371 14.3203 51.5719 14.5149 50.8955 14.6583C50.7009 14.6975 50.4184 14.5013 50.2389 14.3395C50.0319 14.1522 50.1553 13.7455 50.4163 13.7046C51.1834 13.5836 51.9559 13.4908 52.8411 13.3709Z" fill="#2E2520"/>
<path d="M29.9246 36.7565C30.2847 36.9289 30.5861 36.9775 30.7333 37.1615C31.1363 37.6742 31.5049 38.2143 31.8368 38.7781C31.9985 39.0466 31.8508 39.3373 31.5786 39.4146C31.4292 39.4572 31.1586 39.3323 31.0486 39.1936C30.6092 38.651 30.2019 38.0818 29.8292 37.4891C29.7429 37.3482 29.8766 37.0653 29.9246 36.7565Z" fill="#2E2520"/>
<path d="M44.0544 15.376C44.077 15.219 44.0544 15.0395 44.1261 14.9704C44.2231 14.8798 44.4312 14.8047 44.5309 14.8538C44.6673 14.9207 44.7557 15.1041 44.8495 15.2483C45.1105 15.6495 45.3687 16.0528 45.6172 16.4639C45.7283 16.6478 45.8776 16.844 45.8868 17.0423C45.8975 17.2258 45.7886 17.4639 45.6539 17.5899C45.5789 17.6606 45.27 17.6147 45.194 17.5169C44.6959 16.8677 44.0986 16.26 44.0544 15.376Z" fill="#2E2520"/>
<path d="M45.6043 8.47842C45.4965 9.14143 45.4533 9.6293 45.3277 10.0967C45.249 10.3492 45.0989 10.5721 44.8964 10.7371C44.7536 10.8553 44.5045 10.8382 44.3034 10.8813C44.2873 10.6885 44.2285 10.4874 44.2625 10.3045C44.3676 9.7398 44.5083 9.18177 44.6344 8.62152C44.6441 8.57787 44.6414 8.53146 44.6538 8.48892C44.753 8.15078 44.9676 7.89331 45.311 8.0331C45.4841 8.10382 45.5649 8.41378 45.6043 8.47842Z" fill="#2E2520"/>
<path d="M36.3091 12.7902C36.6121 12.8289 37.004 12.8499 37.3782 12.9427C37.5059 12.9742 37.6946 13.2101 37.6725 13.3118C37.6337 13.4936 37.486 13.7328 37.3302 13.7869C37.0833 13.866 36.8189 13.8673 36.5711 13.7908C36.1399 13.6499 35.7382 13.603 35.308 13.7875C35.0256 13.909 34.7603 13.7814 34.6848 13.493C34.584 13.1062 34.8676 12.9189 35.1862 12.8642C35.5258 12.8062 35.8768 12.8156 36.3091 12.7902Z" fill="#2E2520"/>
<path d="M43.0333 31.8386C42.9109 32.3872 42.8177 32.8685 42.6856 33.3387C42.6597 33.4309 42.47 33.5552 42.3902 33.5342C42.2468 33.4983 42.0452 33.3823 42.016 33.2619C41.9515 33.0017 41.9442 32.7302 41.9945 32.4668C42.0958 31.985 42.1956 31.5275 42.0053 31.0352C41.9147 30.7993 41.9406 30.4231 42.2899 30.4242C42.478 30.4242 42.7487 30.6628 42.8333 30.8601C42.9708 31.1756 42.9799 31.5469 43.0333 31.8386Z" fill="#2E2520"/>
<path d="M37.7286 31.6977C37.6585 31.8264 37.6245 31.9784 37.5324 32.0436C36.9647 32.4447 36.3959 32.8475 35.7986 33.1983C35.6461 33.2878 35.3781 33.2326 35.1835 33.1735C34.8983 33.0867 34.839 32.7022 35.0757 32.5463C35.7291 32.117 36.3862 31.6911 37.0596 31.2955C37.1674 31.2319 37.383 31.3004 37.5221 31.3712C37.6165 31.4198 37.6569 31.5767 37.7286 31.6977Z" fill="#2E2520"/>
<path d="M30.4961 5.92361C30.5882 5.97886 30.7618 6.02748 30.785 6.11478C31.0104 6.9662 31.2276 7.82038 31.4066 8.68229C31.4562 8.92153 31.1473 9.05469 30.9403 8.91159C30.2885 8.46184 29.8826 6.79602 30.2626 6.09931C30.302 6.03024 30.3979 5.99543 30.4961 5.92361Z" fill="#2E2520"/>
<path d="M38.5502 8.34195C38.3539 8.20769 38.1421 8.13918 38.1135 8.02315C38.0828 7.89718 38.1841 7.68225 38.2941 7.58114C38.7724 7.14295 39.2726 6.73059 39.7928 6.34573C39.968 6.2192 40.3319 6.1297 40.4667 6.2286C40.7847 6.45789 40.6176 6.7811 40.396 7.01758C40.0985 7.33638 39.803 7.67231 39.4602 7.92978C39.1971 8.12371 38.8596 8.20714 38.5502 8.34195Z" fill="#2E2520"/>
<path d="M26.1569 12.8405L25.6803 13.3024C25.5444 13.1516 25.3428 13.0261 25.2857 12.846C25.0571 12.141 24.8657 11.4233 24.684 10.7039C24.6592 10.605 24.7379 10.4028 24.8188 10.3686C24.9509 10.3133 25.1681 10.2912 25.2684 10.3686C25.4663 10.5183 25.6922 10.7188 25.7568 10.9437C25.9267 11.5294 26.0161 12.1416 26.1569 12.8405Z" fill="#2E2520"/>
<path d="M20.9395 24.6582C20.5023 25.4797 20.1702 26.3212 19.3561 26.7693C19.2192 26.8444 18.9162 26.7483 18.7696 26.6284C18.5205 26.4256 18.7696 26.2571 18.8909 26.0842C19.2731 25.5449 19.6262 24.9825 20.0322 24.4637C20.1367 24.3305 20.4025 24.2648 20.5831 24.283C20.706 24.2946 20.8063 24.509 20.9395 24.6582Z" fill="#2E2520"/>
<path d="M25.8781 24.7278C26.1062 24.8631 26.2717 24.9035 26.3024 24.9924C26.3531 25.1383 26.3795 25.3676 26.3024 25.4687C26.1773 25.63 25.9633 25.7228 25.7789 25.8311C25.3008 26.1124 24.8291 26.4091 24.332 26.6488C24.1805 26.7218 23.9061 26.6997 23.7713 26.6013C23.4937 26.3986 23.5913 26.0737 23.8145 25.9306C24.497 25.4924 25.2145 25.109 25.8781 24.7278Z" fill="#2E2520"/>
<path d="M50.5947 21.0072C50.419 21.4133 50.1721 22.026 49.8793 22.615C49.834 22.7061 49.5505 22.7559 49.4303 22.7012C49.3187 22.6498 49.1968 22.4194 49.2195 22.2945C49.337 21.6398 49.4669 20.9828 49.6648 20.3508C49.7251 20.1579 49.9979 19.9828 50.2076 19.9182C50.2853 19.8944 50.4885 20.1944 50.585 20.3778C50.64 20.4812 50.5947 20.6403 50.5947 21.0072Z" fill="#2E2520"/>
<path d="M20.8025 16.1252C21.5761 16.8368 21.4839 17.8031 21.5697 18.6955C21.5858 18.8612 21.3848 19.0982 21.2241 19.2181C21.14 19.2811 20.7982 19.18 20.7901 19.122C20.6683 18.2208 20.5745 17.3147 20.4996 16.4075C20.4936 16.3302 20.6753 16.2357 20.8025 16.1252Z" fill="#2E2520"/>
<path d="M38.8801 38.161C39.0098 38.1961 39.1374 38.2389 39.2623 38.2892C39.727 38.5102 40.1944 38.7251 40.6478 38.9682C40.8634 39.0831 41.0791 39.2268 41.2343 39.4102C41.4128 39.6229 41.209 40.0312 40.9594 39.9754C40.1163 39.7887 39.2925 39.5279 38.6618 38.8814C38.5685 38.7859 38.5707 38.5466 38.6009 38.388C38.6186 38.2985 38.7815 38.2367 38.8801 38.161Z" fill="#2E2520"/>
<path d="M28.6194 16.3854C28.6642 16.5285 28.8173 16.7506 28.7634 16.8898C28.4804 17.6274 28.1526 18.3479 27.8189 19.0634C27.7779 19.1513 27.6033 19.2292 27.4997 19.2148C27.4092 19.2032 27.2841 19.0728 27.2604 18.9739C27.0836 18.1766 27.641 16.7495 28.2626 16.3904C28.3267 16.3534 28.4291 16.3854 28.6194 16.3854Z" fill="#2E2520"/>
<path d="M52.7285 28.4904C52.6314 28.4274 52.4293 28.3506 52.3241 28.202C52.2821 28.1428 52.4179 27.8732 52.5349 27.787C53.0535 27.4003 53.5829 27.0306 54.135 26.7002C54.2838 26.6113 54.5932 26.6046 54.7026 26.7046C54.8034 26.7975 54.8185 27.1467 54.7274 27.2748C54.2649 27.9356 53.6816 28.4395 52.7285 28.4904Z" fill="#2E2520"/>
<path d="M49.5251 34.1801C49.1251 34.1376 48.951 34.1332 48.7844 34.095C48.7138 34.079 48.6087 33.9934 48.6076 33.9376C48.6001 33.8119 48.632 33.687 48.6987 33.5812C48.7845 33.4813 48.8969 33.4093 49.0222 33.374C49.6389 33.1839 50.2562 32.9933 50.882 32.8392C51.0179 32.806 51.3042 32.8978 51.3219 32.9773C51.3629 33.1663 51.3139 33.3945 51.2416 33.5851C51.2034 33.6856 51.0508 33.7696 50.9338 33.8061C50.3979 33.9569 49.8599 34.0917 49.5251 34.1801Z" fill="#2E2520"/>
<path d="M30.9548 29.6136C30.9106 29.8064 30.8389 30.2335 30.7004 30.6363C30.6659 30.7363 30.3963 30.8325 30.2723 30.796C30.1483 30.7595 30.0028 30.5501 30.0065 30.4192C30.0195 29.6738 30.0556 28.9274 30.1295 28.1854C30.1451 28.0235 30.3451 27.8809 30.4605 27.7296C30.5985 27.8793 30.8222 28.0113 30.8572 28.1832C30.9354 28.5677 30.9187 28.9722 30.9548 29.6136Z" fill="#2E2520"/>
<path d="M59.8562 6.2915C59.8562 4.71255 60.2287 3.51533 60.9736 2.69983C61.727 1.87565 62.692 1.46357 63.8686 1.46357C65.0452 1.46357 65.9806 1.81926 66.6747 2.53066C67.3773 3.24205 67.7286 4.37854 67.7286 5.94014C67.7286 7.50173 67.3561 8.68161 66.6112 9.47975C65.8663 10.2779 64.8717 10.677 63.6273 10.677C62.5523 10.677 61.6719 10.3603 60.9863 9.72701C60.6308 9.39734 60.3514 8.94187 60.1483 8.36061C59.9536 7.77068 59.8562 7.08097 59.8562 6.2915ZM63.8305 1.5937C62.9755 1.5937 62.273 1.9841 61.7227 2.7649C61.181 3.54569 60.9101 4.69086 60.9101 6.20041C60.9101 7.70995 61.1683 8.81174 61.6846 9.50578C62.201 10.1998 62.8867 10.5468 63.7416 10.5468C64.605 10.5468 65.3076 10.1564 65.8494 9.37565C66.3996 8.58617 66.6747 7.44534 66.6747 5.95315C66.6747 4.45229 66.4123 3.35049 65.8875 2.64778C65.3711 1.94506 64.6855 1.5937 63.8305 1.5937Z" fill="#2E2520"/>
<path d="M69.9247 10.6249H68.8709V1.51562H69.9247V5.7059H74.0514V1.51562H75.1053V10.6249H74.0514V5.83603H69.9247V10.6249Z" fill="#2E2520"/>
<path d="M80.5226 10.6249H80.3575L81.4622 1.51562H81.8812L84.5477 9.93522L87.2014 1.51562H87.6204L88.7251 10.6249H87.6712L86.7951 3.33748L84.4969 10.6249H83.6969L81.3733 3.42857L80.5226 10.6249Z" fill="#2E2520"/>
<path d="M95.7588 1.51562C95.9196 1.68046 96 1.89301 96 2.15327C96 2.37016 95.9534 2.59139 95.8603 2.81695L93.5875 7.54077V10.6249H92.5336V7.82707L89.9941 1.51562H91.0734L93.4986 7.38461L95.708 2.81695C95.8011 2.60006 95.8476 2.3745 95.8476 2.14026C95.8476 1.90602 95.7841 1.72383 95.6572 1.5937L95.7588 1.51562Z" fill="#2E2520"/>
<path d="M1.79002 13.0184C2.44636 12.9878 3.08779 12.9725 3.71429 12.9725C4.35572 12.9725 5.02698 13.0413 5.72807 13.1789C6.44408 13.3165 7.14517 13.5764 7.83134 13.9586C8.53243 14.3255 9.12165 14.8071 9.59899 15.4033C10.0912 15.9843 10.4865 16.7563 10.7849 17.7195C11.0832 18.6826 11.2324 19.8521 11.2324 21.2281C11.2324 22.604 11.0086 23.8423 10.5611 24.943C10.1285 26.0285 9.53186 26.8617 8.7711 27.4426C7.29434 28.5739 5.51177 29.1396 3.42342 29.1396C2.69249 29.1396 1.92427 29.109 1.11876 29.0478H0V13.0184H1.79002ZM1.85715 28.8644C2.1704 28.895 2.5657 28.9103 3.04304 28.9103C3.52038 28.9103 3.87838 28.9026 4.11705 28.8873C4.35572 28.872 4.68389 28.8109 5.10156 28.7039C5.51923 28.5816 5.90707 28.421 6.26507 28.2223C6.62308 28.0236 6.996 27.7331 7.38384 27.3509C7.78659 26.9534 8.12968 26.4871 8.4131 25.952C9.05452 24.6984 9.37524 23.0626 9.37524 21.0446C9.37524 19.6075 9.20369 18.3692 8.86061 17.3296C8.51752 16.2747 8.12222 15.4951 7.67472 14.9906C7.24213 14.4861 6.71258 14.0886 6.08607 13.7981C5.45957 13.4923 4.95985 13.3165 4.58693 13.2707C4.21401 13.2248 3.78142 13.2019 3.28916 13.2019C2.79691 13.2019 2.31957 13.2248 1.85715 13.2707V28.8644Z" fill="#2E2520"/>
<path d="M60.2194 29.0478H59.9286V12.9955H60.6893L69.9974 27.8325V12.9955H70.2883V29.0478H68.6549L60.2194 15.7473V29.0478Z" fill="#2E2520"/>
<path d="M84.0664 12.9955H84.3573V22.1683C84.3573 24.5685 83.8949 26.3342 82.97 27.4655C82.0452 28.5816 80.8369 29.1396 79.3452 29.1396C78.4055 29.1396 77.6074 29.0555 76.9511 28.8873C76.2947 28.7039 75.6757 28.3752 75.0939 27.9013C73.9006 26.9534 73.3039 25.0424 73.3039 22.1683V12.9955H75.161V22.1453C75.161 24.9277 75.5713 26.7852 76.3917 27.7178C76.8093 28.1764 77.2419 28.4898 77.6894 28.658C78.1519 28.8262 78.7038 28.9103 79.3452 28.9103C80.7772 28.9103 81.9184 28.3752 82.7686 27.305C83.6338 26.2196 84.0664 24.4997 84.0664 22.1453V12.9955Z" fill="#2E2520"/>
<path d="M91.9904 29.0478H90.1332V13.2248H86.2623V12.9955H95.8837V13.2248H91.9904V29.0478Z" fill="#2E2520"/>
</svg>
